G75*
%MOIN*%
%OFA0B0*%
%FSLAX25Y25*%
%IPPOS*%
%LPD*%
%AMOC8*
5,1,8,0,0,1.08239X$1,22.5*
%
%ADD10C,0.08200*%
%ADD11C,0.13800*%
D10*
X0093333Y0025000D03*
X0103333Y0025000D03*
X0113333Y0025000D03*
X0123333Y0025000D03*
X0133333Y0025000D03*
X0143333Y0025000D03*
X0155333Y0025000D03*
X0165333Y0025000D03*
X0175333Y0025000D03*
X0185333Y0025000D03*
X0195333Y0025000D03*
X0205333Y0025000D03*
X0217333Y0025000D03*
X0227333Y0025000D03*
X0237333Y0025000D03*
X0247333Y0025000D03*
X0257333Y0025000D03*
X0267333Y0025000D03*
X0279333Y0025000D03*
X0289333Y0025000D03*
X0299333Y0025000D03*
X0309333Y0025000D03*
X0319333Y0025000D03*
X0329333Y0025000D03*
X0341333Y0025000D03*
X0351333Y0025000D03*
X0361333Y0025000D03*
X0371333Y0025000D03*
X0381333Y0025000D03*
X0391333Y0025000D03*
X0391333Y0167000D03*
X0381333Y0167000D03*
X0371333Y0167000D03*
X0361333Y0167000D03*
X0351333Y0167000D03*
X0341333Y0167000D03*
X0329333Y0167000D03*
X0319333Y0167000D03*
X0309333Y0167000D03*
X0299333Y0167000D03*
X0289333Y0167000D03*
X0279333Y0167000D03*
X0267333Y0167000D03*
X0257333Y0167000D03*
X0247333Y0167000D03*
X0237333Y0167000D03*
X0227333Y0167000D03*
X0217333Y0167000D03*
X0205333Y0167000D03*
X0195333Y0167000D03*
X0185333Y0167000D03*
X0175333Y0167000D03*
X0165333Y0167000D03*
X0155333Y0167000D03*
X0143333Y0167000D03*
X0133333Y0167000D03*
X0123333Y0167000D03*
X0113333Y0167000D03*
X0103333Y0167000D03*
X0093333Y0167000D03*
X0093333Y0309000D03*
X0103333Y0309000D03*
X0113333Y0309000D03*
X0123333Y0309000D03*
X0133333Y0309000D03*
X0143333Y0309000D03*
X0155333Y0309000D03*
X0165333Y0309000D03*
X0175333Y0309000D03*
X0185333Y0309000D03*
X0195333Y0309000D03*
X0205333Y0309000D03*
X0217333Y0309000D03*
X0227333Y0309000D03*
X0237333Y0309000D03*
X0247333Y0309000D03*
X0257333Y0309000D03*
X0267333Y0309000D03*
X0279333Y0309000D03*
X0289333Y0309000D03*
X0299333Y0309000D03*
X0309333Y0309000D03*
X0319333Y0309000D03*
X0329333Y0309000D03*
X0341333Y0309000D03*
X0351333Y0309000D03*
X0361333Y0309000D03*
X0371333Y0309000D03*
X0381333Y0309000D03*
X0391333Y0309000D03*
D11*
X0346333Y0292000D03*
X0284333Y0292000D03*
X0222333Y0292000D03*
X0160333Y0292000D03*
X0098333Y0292000D03*
X0098333Y0150000D03*
X0160333Y0150000D03*
X0222333Y0150000D03*
X0284333Y0150000D03*
X0346333Y0150000D03*
X0346333Y0434000D03*
X0284333Y0434000D03*
X0222333Y0434000D03*
X0160333Y0434000D03*
X0098333Y0434000D03*
M02*
