%
M48
M72
T01C0.0150
T02C0.0400
T03C0.1300
%
T01
X9433Y7300
X10333Y6250
X10833Y6250
X11333Y6250
X11833Y6250
X12783Y6350
X12933Y7500
X13833Y6500
X13733Y5000
X11833Y8370
X11333Y8370
X10363Y9440
X9944Y9400
X9583Y9150
X10233Y10400
X11533Y10300
X13033Y12450
X13333Y13550
X14333Y14850
X13668Y15500
X12683Y15300
X13733Y19200
X13833Y20700
X12933Y21700
X12783Y20550
X11833Y20450
X11333Y20450
X10833Y20450
X10333Y20450
X9433Y21500
X9583Y23350
X9944Y23600
X10363Y23640
X10233Y24600
X11533Y24500
X11333Y22570
X11833Y22570
X14183Y24450
X13033Y26650
X13333Y27750
X14333Y29050
X13668Y29700
X12683Y29500
X13733Y33400
X13833Y34900
X12933Y35900
X12783Y34750
X11833Y34650
X11333Y34650
X10833Y34650
X10333Y34650
X9433Y35700
X9583Y37550
X9944Y37800
X10363Y37840
X10233Y38800
X11533Y38700
X11333Y36770
X11833Y36770
X14183Y38650
X13033Y40850
X13333Y41950
X14333Y43250
X13668Y43900
X12683Y43700
X16433Y38800
X16563Y37840
X16144Y37800
X15783Y37550
X15633Y35700
X16533Y34650
X17033Y34650
X17533Y34650
X18033Y34650
X18983Y34750
X19133Y35900
X20033Y34900
X19933Y33400
X18033Y36770
X17533Y36770
X17733Y38700
X19233Y40850
X19533Y41950
X18883Y43700
X19868Y43900
X20533Y43250
X20383Y38650
X21983Y37550
X22344Y37800
X22763Y37840
X22633Y38800
X23933Y38700
X23733Y36770
X24233Y36770
X24233Y34650
X23733Y34650
X23233Y34650
X22733Y34650
X21833Y35700
X22333Y32600
X20533Y29050
X19868Y29700
X18883Y29500
X19533Y27750
X19233Y26650
X20383Y24450
X21983Y23350
X22344Y23600
X22763Y23640
X22633Y24600
X23933Y24500
X23733Y22570
X24233Y22570
X24233Y20450
X23733Y20450
X23233Y20450
X22733Y20450
X21833Y21500
X20033Y20700
X19133Y21700
X18983Y20550
X18033Y20450
X17533Y20450
X17033Y20450
X16533Y20450
X15633Y21500
X15783Y23350
X16144Y23600
X16563Y23640
X16433Y24600
X17733Y24500
X17533Y22570
X18033Y22570
X19933Y19200
X19868Y15500
X20533Y14850
X19533Y13550
X19233Y12450
X20383Y10250
X21983Y9150
X22344Y9400
X22763Y9440
X22633Y10400
X23933Y10300
X23733Y8370
X24233Y8370
X25183Y6350
X25333Y7500
X26233Y6500
X26133Y5000
X24233Y6250
X23733Y6250
X23233Y6250
X22733Y6250
X21833Y7300
X20033Y6500
X19133Y7500
X18983Y6350
X18033Y6250
X17533Y6250
X17033Y6250
X16533Y6250
X15633Y7300
X15783Y9150
X16144Y9400
X16563Y9440
X16433Y10400
X17733Y10300
X17533Y8370
X18033Y8370
X19933Y5000
X22333Y4200
X26583Y10250
X25433Y12450
X25733Y13550
X25083Y15300
X26068Y15500
X26733Y14850
X28533Y18400
X28933Y20450
X29433Y20450
X29933Y20450
X30433Y20450
X31383Y20550
X31533Y21700
X32433Y20700
X32333Y19200
X30433Y22570
X29933Y22570
X28963Y23640
X28544Y23600
X28183Y23350
X28833Y24600
X30133Y24500
X31633Y26650
X31933Y27750
X31283Y29500
X32268Y29700
X32933Y29050
X34733Y32600
X35133Y34650
X35633Y34650
X36133Y34650
X36633Y34650
X37583Y34750
X37733Y35900
X38633Y34900
X38533Y33400
X36633Y36770
X36133Y36770
X35163Y37840
X34744Y37800
X34383Y37550
X35033Y38800
X36333Y38700
X37833Y40850
X38133Y41950
X37483Y43700
X38468Y43900
X39133Y43250
X38983Y38650
X34233Y35700
X32783Y38650
X31633Y40850
X31933Y41950
X31283Y43700
X32268Y43900
X32933Y43250
X30133Y38700
X28963Y37840
X28544Y37800
X28183Y37550
X28833Y38800
X29933Y36770
X30433Y36770
X31533Y35900
X31383Y34750
X30433Y34650
X29933Y34650
X29433Y34650
X28933Y34650
X28033Y35700
X26233Y34900
X25333Y35900
X25183Y34750
X26133Y33400
X26068Y29700
X26733Y29050
X25733Y27750
X25433Y26650
X26583Y24450
X25333Y21700
X25183Y20550
X26133Y19200
X26233Y20700
X28033Y21500
X31283Y15300
X32268Y15500
X32933Y14850
X31933Y13550
X31633Y12450
X32783Y10250
X34383Y9150
X34744Y9400
X35163Y9440
X35033Y10400
X36333Y10300
X36133Y8370
X36633Y8370
X37733Y7500
X37583Y6350
X36633Y6250
X36133Y6250
X35633Y6250
X35133Y6250
X34233Y7300
X34733Y4200
X32333Y5000
X32433Y6500
X31383Y6350
X31533Y7500
X30433Y8370
X29933Y8370
X28963Y9440
X28544Y9400
X28183Y9150
X28833Y10400
X30133Y10300
X28033Y7300
X28933Y6250
X29433Y6250
X29933Y6250
X30433Y6250
X28533Y4200
X22333Y18400
X18883Y15300
X16133Y18400
X14183Y10250
X16133Y4200
X9933Y4200
X9933Y18400
X9933Y32600
X16133Y32600
X25083Y29500
X28533Y32600
X32333Y33400
X32433Y34900
X37483Y29500
X38468Y29700
X39133Y29050
X38133Y27750
X37833Y26650
X38983Y24450
X37733Y21700
X37583Y20550
X36633Y20450
X36133Y20450
X35633Y20450
X35133Y20450
X34233Y21500
X34383Y23350
X34744Y23600
X35163Y23640
X35033Y24600
X36333Y24500
X36133Y22570
X36633Y22570
X38633Y20700
X38533Y19200
X38468Y15500
X39133Y14850
X38133Y13550
X37833Y12450
X38983Y10250
X38633Y6500
X38533Y5000
X37483Y15300
X34733Y18400
X32783Y24450
X26583Y38650
X25433Y40850
X25733Y41950
X25083Y43700
X26068Y43900
X26733Y43250
T02
X9333Y2500
X10333Y2500
X11333Y2500
X12333Y2500
X13333Y2500
X14333Y2500
X15533Y2500
X16533Y2500
X17533Y2500
X18533Y2500
X19533Y2500
X20533Y2500
X21733Y2500
X22733Y2500
X23733Y2500
X24733Y2500
X25733Y2500
X26733Y2500
X27933Y2500
X28933Y2500
X29933Y2500
X30933Y2500
X31933Y2500
X32933Y2500
X34133Y2500
X35133Y2500
X36133Y2500
X37133Y2500
X38133Y2500
X39133Y2500
X39133Y16700
X38133Y16700
X37133Y16700
X36133Y16700
X35133Y16700
X34133Y16700
X32933Y16700
X31933Y16700
X30933Y16700
X29933Y16700
X28933Y16700
X27933Y16700
X26733Y16700
X25733Y16700
X24733Y16700
X23733Y16700
X22733Y16700
X21733Y16700
X20533Y16700
X19533Y16700
X18533Y16700
X17533Y16700
X16533Y16700
X15533Y16700
X14333Y16700
X13333Y16700
X12333Y16700
X11333Y16700
X10333Y16700
X9333Y16700
X9333Y30900
X10333Y30900
X11333Y30900
X12333Y30900
X13333Y30900
X14333Y30900
X15533Y30900
X16533Y30900
X17533Y30900
X18533Y30900
X19533Y30900
X20533Y30900
X21733Y30900
X22733Y30900
X23733Y30900
X24733Y30900
X25733Y30900
X26733Y30900
X27933Y30900
X28933Y30900
X29933Y30900
X30933Y30900
X31933Y30900
X32933Y30900
X34133Y30900
X35133Y30900
X36133Y30900
X37133Y30900
X38133Y30900
X39133Y30900
T03
X34633Y29200
X28433Y29200
X22233Y29200
X16033Y29200
X9833Y29200
X9833Y15000
X16033Y15000
X22233Y15000
X28433Y15000
X34633Y15000
X34633Y43400
X28433Y43400
X22233Y43400
X16033Y43400
X9833Y43400
M30
