G75*
%MOIN*%
%OFA0B0*%
%FSLAX25Y25*%
%IPPOS*%
%LPD*%
%AMOC8*
5,1,8,0,0,1.08239X$1,22.5*
%
%ADD10C,0.00800*%
%ADD11C,0.00000*%
D10*
X0173333Y0050000D02*
X0173333Y0190000D01*
X0233333Y0190000D01*
X0233333Y0050000D01*
X0173333Y0050000D01*
D11*
X0176833Y0180000D02*
X0176835Y0180161D01*
X0176841Y0180321D01*
X0176851Y0180482D01*
X0176865Y0180642D01*
X0176883Y0180802D01*
X0176904Y0180961D01*
X0176930Y0181120D01*
X0176960Y0181278D01*
X0176993Y0181435D01*
X0177031Y0181592D01*
X0177072Y0181747D01*
X0177117Y0181901D01*
X0177166Y0182054D01*
X0177219Y0182206D01*
X0177275Y0182357D01*
X0177336Y0182506D01*
X0177399Y0182654D01*
X0177467Y0182800D01*
X0177538Y0182944D01*
X0177612Y0183086D01*
X0177690Y0183227D01*
X0177772Y0183365D01*
X0177857Y0183502D01*
X0177945Y0183636D01*
X0178037Y0183768D01*
X0178132Y0183898D01*
X0178230Y0184026D01*
X0178331Y0184151D01*
X0178435Y0184273D01*
X0178542Y0184393D01*
X0178652Y0184510D01*
X0178765Y0184625D01*
X0178881Y0184736D01*
X0179000Y0184845D01*
X0179121Y0184950D01*
X0179245Y0185053D01*
X0179371Y0185153D01*
X0179499Y0185249D01*
X0179630Y0185342D01*
X0179764Y0185432D01*
X0179899Y0185519D01*
X0180037Y0185602D01*
X0180176Y0185682D01*
X0180318Y0185758D01*
X0180461Y0185831D01*
X0180606Y0185900D01*
X0180753Y0185966D01*
X0180901Y0186028D01*
X0181051Y0186086D01*
X0181202Y0186141D01*
X0181355Y0186192D01*
X0181509Y0186239D01*
X0181664Y0186282D01*
X0181820Y0186321D01*
X0181976Y0186357D01*
X0182134Y0186388D01*
X0182292Y0186416D01*
X0182451Y0186440D01*
X0182611Y0186460D01*
X0182771Y0186476D01*
X0182931Y0186488D01*
X0183092Y0186496D01*
X0183253Y0186500D01*
X0183413Y0186500D01*
X0183574Y0186496D01*
X0183735Y0186488D01*
X0183895Y0186476D01*
X0184055Y0186460D01*
X0184215Y0186440D01*
X0184374Y0186416D01*
X0184532Y0186388D01*
X0184690Y0186357D01*
X0184846Y0186321D01*
X0185002Y0186282D01*
X0185157Y0186239D01*
X0185311Y0186192D01*
X0185464Y0186141D01*
X0185615Y0186086D01*
X0185765Y0186028D01*
X0185913Y0185966D01*
X0186060Y0185900D01*
X0186205Y0185831D01*
X0186348Y0185758D01*
X0186490Y0185682D01*
X0186629Y0185602D01*
X0186767Y0185519D01*
X0186902Y0185432D01*
X0187036Y0185342D01*
X0187167Y0185249D01*
X0187295Y0185153D01*
X0187421Y0185053D01*
X0187545Y0184950D01*
X0187666Y0184845D01*
X0187785Y0184736D01*
X0187901Y0184625D01*
X0188014Y0184510D01*
X0188124Y0184393D01*
X0188231Y0184273D01*
X0188335Y0184151D01*
X0188436Y0184026D01*
X0188534Y0183898D01*
X0188629Y0183768D01*
X0188721Y0183636D01*
X0188809Y0183502D01*
X0188894Y0183365D01*
X0188976Y0183227D01*
X0189054Y0183086D01*
X0189128Y0182944D01*
X0189199Y0182800D01*
X0189267Y0182654D01*
X0189330Y0182506D01*
X0189391Y0182357D01*
X0189447Y0182206D01*
X0189500Y0182054D01*
X0189549Y0181901D01*
X0189594Y0181747D01*
X0189635Y0181592D01*
X0189673Y0181435D01*
X0189706Y0181278D01*
X0189736Y0181120D01*
X0189762Y0180961D01*
X0189783Y0180802D01*
X0189801Y0180642D01*
X0189815Y0180482D01*
X0189825Y0180321D01*
X0189831Y0180161D01*
X0189833Y0180000D01*
X0189831Y0179839D01*
X0189825Y0179679D01*
X0189815Y0179518D01*
X0189801Y0179358D01*
X0189783Y0179198D01*
X0189762Y0179039D01*
X0189736Y0178880D01*
X0189706Y0178722D01*
X0189673Y0178565D01*
X0189635Y0178408D01*
X0189594Y0178253D01*
X0189549Y0178099D01*
X0189500Y0177946D01*
X0189447Y0177794D01*
X0189391Y0177643D01*
X0189330Y0177494D01*
X0189267Y0177346D01*
X0189199Y0177200D01*
X0189128Y0177056D01*
X0189054Y0176914D01*
X0188976Y0176773D01*
X0188894Y0176635D01*
X0188809Y0176498D01*
X0188721Y0176364D01*
X0188629Y0176232D01*
X0188534Y0176102D01*
X0188436Y0175974D01*
X0188335Y0175849D01*
X0188231Y0175727D01*
X0188124Y0175607D01*
X0188014Y0175490D01*
X0187901Y0175375D01*
X0187785Y0175264D01*
X0187666Y0175155D01*
X0187545Y0175050D01*
X0187421Y0174947D01*
X0187295Y0174847D01*
X0187167Y0174751D01*
X0187036Y0174658D01*
X0186902Y0174568D01*
X0186767Y0174481D01*
X0186629Y0174398D01*
X0186490Y0174318D01*
X0186348Y0174242D01*
X0186205Y0174169D01*
X0186060Y0174100D01*
X0185913Y0174034D01*
X0185765Y0173972D01*
X0185615Y0173914D01*
X0185464Y0173859D01*
X0185311Y0173808D01*
X0185157Y0173761D01*
X0185002Y0173718D01*
X0184846Y0173679D01*
X0184690Y0173643D01*
X0184532Y0173612D01*
X0184374Y0173584D01*
X0184215Y0173560D01*
X0184055Y0173540D01*
X0183895Y0173524D01*
X0183735Y0173512D01*
X0183574Y0173504D01*
X0183413Y0173500D01*
X0183253Y0173500D01*
X0183092Y0173504D01*
X0182931Y0173512D01*
X0182771Y0173524D01*
X0182611Y0173540D01*
X0182451Y0173560D01*
X0182292Y0173584D01*
X0182134Y0173612D01*
X0181976Y0173643D01*
X0181820Y0173679D01*
X0181664Y0173718D01*
X0181509Y0173761D01*
X0181355Y0173808D01*
X0181202Y0173859D01*
X0181051Y0173914D01*
X0180901Y0173972D01*
X0180753Y0174034D01*
X0180606Y0174100D01*
X0180461Y0174169D01*
X0180318Y0174242D01*
X0180176Y0174318D01*
X0180037Y0174398D01*
X0179899Y0174481D01*
X0179764Y0174568D01*
X0179630Y0174658D01*
X0179499Y0174751D01*
X0179371Y0174847D01*
X0179245Y0174947D01*
X0179121Y0175050D01*
X0179000Y0175155D01*
X0178881Y0175264D01*
X0178765Y0175375D01*
X0178652Y0175490D01*
X0178542Y0175607D01*
X0178435Y0175727D01*
X0178331Y0175849D01*
X0178230Y0175974D01*
X0178132Y0176102D01*
X0178037Y0176232D01*
X0177945Y0176364D01*
X0177857Y0176498D01*
X0177772Y0176635D01*
X0177690Y0176773D01*
X0177612Y0176914D01*
X0177538Y0177056D01*
X0177467Y0177200D01*
X0177399Y0177346D01*
X0177336Y0177494D01*
X0177275Y0177643D01*
X0177219Y0177794D01*
X0177166Y0177946D01*
X0177117Y0178099D01*
X0177072Y0178253D01*
X0177031Y0178408D01*
X0176993Y0178565D01*
X0176960Y0178722D01*
X0176930Y0178880D01*
X0176904Y0179039D01*
X0176883Y0179198D01*
X0176865Y0179358D01*
X0176851Y0179518D01*
X0176841Y0179679D01*
X0176835Y0179839D01*
X0176833Y0180000D01*
M02*
