G75*
%MOIN*%
%OFA0B0*%
%FSLAX25Y25*%
%IPPOS*%
%LPD*%
%AMOC8*
5,1,8,0,0,1.08239X$1,22.5*
%
%ADD10R,0.02965X0.05524*%
%ADD11R,0.05131X0.04737*%
%ADD12R,0.05524X0.03950*%
%ADD13R,0.04737X0.05131*%
%ADD14R,0.03280X0.04068*%
%ADD15R,0.11430X0.03950*%
%ADD16R,0.05524X0.02965*%
%ADD17R,0.03162X0.05524*%
%ADD18C,0.08200*%
%ADD19C,0.13800*%
%ADD20C,0.04737*%
%ADD21R,0.01706X0.04737*%
D10*
X0214593Y0159881D03*
X0218333Y0159881D03*
X0222073Y0159881D03*
X0222073Y0170119D03*
X0214593Y0170119D03*
D11*
X0214987Y0178500D03*
X0221680Y0178500D03*
X0219987Y0105000D03*
X0226680Y0105000D03*
X0226680Y0085000D03*
X0219987Y0085000D03*
X0211680Y0077500D03*
X0204987Y0077500D03*
X0186680Y0077500D03*
X0179987Y0077500D03*
D12*
X0204333Y0121457D03*
X0204333Y0128543D03*
X0211333Y0136457D03*
X0218333Y0136457D03*
X0218333Y0143543D03*
X0211333Y0143543D03*
D13*
X0204833Y0143346D03*
X0204833Y0136654D03*
X0210833Y0128346D03*
X0216833Y0128346D03*
X0216833Y0121654D03*
X0210833Y0121654D03*
X0228333Y0151654D03*
X0228333Y0158346D03*
X0228333Y0166654D03*
X0228333Y0173346D03*
D14*
X0217861Y0150000D03*
X0208806Y0150000D03*
D15*
X0203333Y0160669D03*
X0203333Y0169331D03*
D16*
X0218215Y0098740D03*
X0218215Y0095000D03*
X0218215Y0091260D03*
X0228452Y0091260D03*
X0228452Y0098740D03*
D17*
X0208333Y0108524D03*
X0203333Y0108524D03*
X0198333Y0108524D03*
X0193333Y0108524D03*
X0188333Y0108524D03*
X0183333Y0108524D03*
X0178333Y0108524D03*
X0178333Y0086476D03*
X0183333Y0086476D03*
X0188333Y0086476D03*
X0193333Y0086476D03*
X0198333Y0086476D03*
X0203333Y0086476D03*
X0208333Y0086476D03*
D18*
X0178333Y0055000D03*
X0188333Y0055000D03*
X0198333Y0055000D03*
X0208333Y0055000D03*
X0218333Y0055000D03*
X0228333Y0055000D03*
D19*
X0183333Y0180000D03*
D20*
X0193333Y0185000D03*
X0223333Y0072500D03*
D21*
X0192703Y0116122D03*
X0190341Y0116122D03*
X0187979Y0116122D03*
X0185617Y0116122D03*
X0183255Y0116122D03*
X0180892Y0116122D03*
X0179711Y0128563D03*
X0182073Y0128563D03*
X0184436Y0128563D03*
X0186798Y0128563D03*
X0189160Y0128563D03*
X0191522Y0128563D03*
X0193885Y0128563D03*
M02*
