%
M48
M72
T01C0.0150
T02C0.0400
T03C0.1300
%
T01
X17933Y10300
X18833Y9250
X19333Y9250
X19833Y9250
X20333Y9250
X21283Y9350
X22333Y9500
X21433Y10500
X20333Y11370
X19833Y11370
X18863Y12440
X18444Y12400
X18083Y12150
X18733Y13400
X19388Y14000
X20033Y13300
X21833Y15450
X21833Y16550
X22833Y17850
X22168Y18500
X21183Y18300
X22683Y13250
X22233Y8000
X18433Y7200
T02
X17833Y5500
X18833Y5500
X19833Y5500
X20833Y5500
X21833Y5500
X22833Y5500
T03
X18333Y18000
M30
