G75*
%MOIN*%
%OFA0B0*%
%FSLAX25Y25*%
%IPPOS*%
%LPD*%
%AMOC8*
5,1,8,0,0,1.08239X$1,22.5*
%
%ADD10R,0.02165X0.04724*%
%ADD11R,0.04331X0.03937*%
%ADD12R,0.04724X0.03150*%
%ADD13R,0.03937X0.04331*%
%ADD14R,0.02480X0.03268*%
%ADD15R,0.10630X0.03150*%
%ADD16R,0.04724X0.02165*%
%ADD17R,0.02362X0.04724*%
%ADD18C,0.07400*%
%ADD19C,0.03937*%
%ADD20R,0.00906X0.03937*%
%ADD21C,0.00800*%
%ADD22C,0.02900*%
%ADD23C,0.01200*%
%ADD24C,0.00900*%
%ADD25C,0.00700*%
D10*
X0214593Y0159881D03*
X0218333Y0159881D03*
X0222073Y0159881D03*
X0222073Y0170119D03*
X0214593Y0170119D03*
D11*
X0214987Y0178500D03*
X0221680Y0178500D03*
X0219987Y0105000D03*
X0226680Y0105000D03*
X0226680Y0085000D03*
X0219987Y0085000D03*
X0211680Y0077500D03*
X0204987Y0077500D03*
X0186680Y0077500D03*
X0179987Y0077500D03*
D12*
X0204333Y0121457D03*
X0204333Y0128543D03*
X0211333Y0136457D03*
X0218333Y0136457D03*
X0218333Y0143543D03*
X0211333Y0143543D03*
D13*
X0204833Y0143346D03*
X0204833Y0136654D03*
X0210833Y0128346D03*
X0216833Y0128346D03*
X0216833Y0121654D03*
X0210833Y0121654D03*
X0228333Y0151654D03*
X0228333Y0158346D03*
X0228333Y0166654D03*
X0228333Y0173346D03*
D14*
X0217861Y0150000D03*
X0208806Y0150000D03*
D15*
X0203333Y0160669D03*
X0203333Y0169331D03*
D16*
X0218215Y0098740D03*
X0218215Y0095000D03*
X0218215Y0091260D03*
X0228452Y0091260D03*
X0228452Y0098740D03*
D17*
X0208333Y0108524D03*
X0203333Y0108524D03*
X0198333Y0108524D03*
X0193333Y0108524D03*
X0188333Y0108524D03*
X0183333Y0108524D03*
X0178333Y0108524D03*
X0178333Y0086476D03*
X0183333Y0086476D03*
X0188333Y0086476D03*
X0193333Y0086476D03*
X0198333Y0086476D03*
X0203333Y0086476D03*
X0208333Y0086476D03*
D18*
X0208333Y0055000D03*
X0198333Y0055000D03*
X0188333Y0055000D03*
X0178333Y0055000D03*
X0218333Y0055000D03*
X0228333Y0055000D03*
D19*
X0223333Y0072500D03*
X0193333Y0185000D03*
D20*
X0193885Y0128563D03*
X0191522Y0128563D03*
X0189160Y0128563D03*
X0186798Y0128563D03*
X0184436Y0128563D03*
X0182073Y0128563D03*
X0179711Y0128563D03*
X0180892Y0116122D03*
X0183255Y0116122D03*
X0185617Y0116122D03*
X0187979Y0116122D03*
X0190341Y0116122D03*
X0192703Y0116122D03*
D21*
X0175133Y0059012D02*
X0175133Y0176003D01*
X0176255Y0174060D01*
X0178713Y0171998D01*
X0181729Y0170900D01*
X0184938Y0170900D01*
X0187954Y0171998D01*
X0190412Y0174060D01*
X0190412Y0174060D01*
X0190412Y0174060D01*
X0192016Y0176840D01*
X0192574Y0180000D01*
X0192256Y0181800D01*
X0192663Y0181631D01*
X0194003Y0181631D01*
X0195241Y0182144D01*
X0196189Y0183092D01*
X0196702Y0184330D01*
X0196702Y0185670D01*
X0196189Y0186908D01*
X0195241Y0187856D01*
X0194410Y0188200D01*
X0231533Y0188200D01*
X0231533Y0176179D01*
X0231422Y0176371D01*
X0231161Y0176632D01*
X0230842Y0176816D01*
X0230486Y0176912D01*
X0228733Y0176912D01*
X0228733Y0173746D01*
X0227933Y0173746D01*
X0227933Y0172946D01*
X0224965Y0172946D01*
X0224965Y0170997D01*
X0225060Y0170641D01*
X0225245Y0170321D01*
X0225505Y0170061D01*
X0225582Y0170016D01*
X0224965Y0169399D01*
X0224965Y0163908D01*
X0225189Y0163684D01*
X0224442Y0162937D01*
X0223736Y0163644D01*
X0220411Y0163644D01*
X0220184Y0163417D01*
X0219956Y0163548D01*
X0219600Y0163644D01*
X0218475Y0163644D01*
X0218475Y0160023D01*
X0218192Y0160023D01*
X0218192Y0163644D01*
X0217066Y0163644D01*
X0216710Y0163548D01*
X0216483Y0163417D01*
X0216256Y0163644D01*
X0212931Y0163644D01*
X0212110Y0162824D01*
X0212110Y0157000D01*
X0205662Y0157000D01*
X0205333Y0157328D01*
X0205333Y0157694D01*
X0209228Y0157694D01*
X0210048Y0158515D01*
X0210048Y0162824D01*
X0209228Y0163644D01*
X0197438Y0163644D01*
X0196618Y0162824D01*
X0196618Y0158515D01*
X0197438Y0157694D01*
X0201333Y0157694D01*
X0201333Y0155672D01*
X0204005Y0153000D01*
X0206806Y0153000D01*
X0206806Y0152854D01*
X0206166Y0152214D01*
X0206166Y0147786D01*
X0206986Y0146966D01*
X0210626Y0146966D01*
X0211446Y0147786D01*
X0211446Y0152214D01*
X0210806Y0152854D01*
X0210806Y0153000D01*
X0214162Y0153000D01*
X0215333Y0154172D01*
X0216593Y0155431D01*
X0216593Y0156282D01*
X0216710Y0156215D01*
X0217066Y0156119D01*
X0218192Y0156119D01*
X0218192Y0159740D01*
X0218475Y0159740D01*
X0218475Y0156119D01*
X0219600Y0156119D01*
X0219956Y0156215D01*
X0220184Y0156346D01*
X0220411Y0156119D01*
X0223736Y0156119D01*
X0224556Y0156939D01*
X0224556Y0157881D01*
X0224965Y0157881D01*
X0224965Y0155601D01*
X0225566Y0155000D01*
X0224965Y0154399D01*
X0224965Y0153454D01*
X0222241Y0153454D01*
X0220588Y0151800D01*
X0220501Y0151800D01*
X0220501Y0152214D01*
X0219681Y0153034D01*
X0216041Y0153034D01*
X0215221Y0152214D01*
X0215221Y0147786D01*
X0216041Y0146966D01*
X0216061Y0146966D01*
X0216061Y0146518D01*
X0215391Y0146518D01*
X0214833Y0145960D01*
X0214275Y0146518D01*
X0208391Y0146518D01*
X0208083Y0146210D01*
X0207382Y0146912D01*
X0202285Y0146912D01*
X0201465Y0146092D01*
X0201465Y0145146D01*
X0185934Y0145146D01*
X0184880Y0144092D01*
X0177911Y0137124D01*
X0177911Y0131164D01*
X0177859Y0131111D01*
X0177859Y0126015D01*
X0178679Y0125194D01*
X0180744Y0125194D01*
X0180928Y0125378D01*
X0181080Y0125290D01*
X0181436Y0125194D01*
X0181846Y0125194D01*
X0181586Y0124567D01*
X0181586Y0123433D01*
X0182020Y0122386D01*
X0182821Y0121584D01*
X0183869Y0121150D01*
X0185003Y0121150D01*
X0186050Y0121584D01*
X0186734Y0122268D01*
X0187019Y0121984D01*
X0188066Y0121550D01*
X0189200Y0121550D01*
X0189435Y0121647D01*
X0188541Y0120753D01*
X0188541Y0119491D01*
X0187979Y0119491D01*
X0187342Y0119491D01*
X0186986Y0119395D01*
X0186833Y0119307D01*
X0186649Y0119491D01*
X0184584Y0119491D01*
X0184436Y0119342D01*
X0184287Y0119491D01*
X0182222Y0119491D01*
X0182038Y0119307D01*
X0181886Y0119395D01*
X0181529Y0119491D01*
X0180892Y0119491D01*
X0180255Y0119491D01*
X0179899Y0119395D01*
X0179580Y0119211D01*
X0179319Y0118950D01*
X0179135Y0118631D01*
X0179040Y0118275D01*
X0179040Y0116122D01*
X0179040Y0113969D01*
X0179135Y0113613D01*
X0179319Y0113294D01*
X0179580Y0113033D01*
X0179899Y0112849D01*
X0180255Y0112754D01*
X0180892Y0112754D01*
X0180892Y0116122D01*
X0179040Y0116122D01*
X0180892Y0116122D01*
X0180892Y0116122D01*
X0180892Y0116122D01*
X0180892Y0119491D01*
X0180892Y0116122D01*
X0180892Y0116122D01*
X0180892Y0112754D01*
X0181529Y0112754D01*
X0181886Y0112849D01*
X0181964Y0112894D01*
X0182573Y0112286D01*
X0181572Y0112286D01*
X0180780Y0111494D01*
X0180635Y0111745D01*
X0180374Y0112006D01*
X0180055Y0112190D01*
X0179699Y0112286D01*
X0178524Y0112286D01*
X0178524Y0108714D01*
X0178143Y0108714D01*
X0178143Y0108333D01*
X0178524Y0108333D01*
X0178524Y0104761D01*
X0179699Y0104761D01*
X0180055Y0104857D01*
X0180374Y0105041D01*
X0180635Y0105302D01*
X0180780Y0105554D01*
X0181572Y0104761D01*
X0185094Y0104761D01*
X0185833Y0105500D01*
X0186572Y0104761D01*
X0190094Y0104761D01*
X0190833Y0105500D01*
X0191572Y0104761D01*
X0195094Y0104761D01*
X0195833Y0105500D01*
X0196572Y0104761D01*
X0200094Y0104761D01*
X0200833Y0105500D01*
X0201572Y0104761D01*
X0205094Y0104761D01*
X0205833Y0105500D01*
X0206533Y0104800D01*
X0206533Y0103746D01*
X0204588Y0101800D01*
X0187588Y0101800D01*
X0186533Y0100746D01*
X0176533Y0090746D01*
X0176533Y0090200D01*
X0175752Y0089418D01*
X0175752Y0083534D01*
X0176533Y0082753D01*
X0176533Y0081754D01*
X0177419Y0080868D01*
X0177242Y0080868D01*
X0176422Y0080048D01*
X0176422Y0074952D01*
X0177242Y0074131D01*
X0182732Y0074131D01*
X0183350Y0074749D01*
X0183394Y0074672D01*
X0183655Y0074411D01*
X0183974Y0074227D01*
X0184330Y0074131D01*
X0186280Y0074131D01*
X0186280Y0077100D01*
X0187080Y0077100D01*
X0187080Y0077900D01*
X0190245Y0077900D01*
X0190245Y0079653D01*
X0190150Y0080009D01*
X0189965Y0080328D01*
X0189705Y0080589D01*
X0189386Y0080773D01*
X0189029Y0080868D01*
X0187080Y0080868D01*
X0187080Y0077900D01*
X0186280Y0077900D01*
X0186280Y0080868D01*
X0184330Y0080868D01*
X0183974Y0080773D01*
X0183655Y0080589D01*
X0183394Y0080328D01*
X0183350Y0080251D01*
X0182732Y0080868D01*
X0181787Y0080868D01*
X0181787Y0081592D01*
X0180380Y0082999D01*
X0180833Y0083453D01*
X0181572Y0082714D01*
X0185094Y0082714D01*
X0185833Y0083453D01*
X0186572Y0082714D01*
X0190094Y0082714D01*
X0190833Y0083453D01*
X0191572Y0082714D01*
X0195094Y0082714D01*
X0195833Y0083453D01*
X0196572Y0082714D01*
X0200094Y0082714D01*
X0200833Y0083453D01*
X0201572Y0082714D01*
X0204502Y0082714D01*
X0204033Y0082246D01*
X0203187Y0081399D01*
X0203187Y0080868D01*
X0202242Y0080868D01*
X0201422Y0080048D01*
X0201422Y0074952D01*
X0202242Y0074131D01*
X0207732Y0074131D01*
X0208350Y0074749D01*
X0208394Y0074672D01*
X0208655Y0074411D01*
X0208974Y0074227D01*
X0209330Y0074131D01*
X0211280Y0074131D01*
X0211280Y0077100D01*
X0212080Y0077100D01*
X0212080Y0077900D01*
X0215245Y0077900D01*
X0215245Y0079653D01*
X0215150Y0080009D01*
X0214965Y0080328D01*
X0214705Y0080589D01*
X0214386Y0080773D01*
X0214029Y0080868D01*
X0212080Y0080868D01*
X0212080Y0077900D01*
X0211280Y0077900D01*
X0211280Y0080868D01*
X0209330Y0080868D01*
X0209217Y0080838D01*
X0210133Y0081754D01*
X0210133Y0082753D01*
X0210914Y0083534D01*
X0210914Y0084676D01*
X0212555Y0084676D01*
X0213610Y0085731D01*
X0216656Y0088777D01*
X0221157Y0088777D01*
X0221333Y0088954D01*
X0221333Y0088368D01*
X0220387Y0088368D01*
X0220387Y0085400D01*
X0219587Y0085400D01*
X0219587Y0088368D01*
X0217637Y0088368D01*
X0217281Y0088273D01*
X0216962Y0088089D01*
X0216701Y0087828D01*
X0216517Y0087509D01*
X0216422Y0087153D01*
X0216422Y0085400D01*
X0219587Y0085400D01*
X0219587Y0084600D01*
X0220387Y0084600D01*
X0220387Y0081631D01*
X0222337Y0081631D01*
X0222693Y0081727D01*
X0223012Y0081911D01*
X0223272Y0082172D01*
X0223317Y0082249D01*
X0223935Y0081631D01*
X0224680Y0081631D01*
X0224680Y0079825D01*
X0225851Y0078654D01*
X0226333Y0078172D01*
X0226333Y0074060D01*
X0226189Y0074408D01*
X0225241Y0075356D01*
X0224003Y0075868D01*
X0222663Y0075868D01*
X0221425Y0075356D01*
X0220478Y0074408D01*
X0219965Y0073170D01*
X0219965Y0071830D01*
X0220478Y0070592D01*
X0221425Y0069644D01*
X0222663Y0069131D01*
X0224003Y0069131D01*
X0225241Y0069644D01*
X0226189Y0070592D01*
X0226333Y0070940D01*
X0226333Y0059692D01*
X0225444Y0059324D01*
X0224010Y0057889D01*
X0223308Y0056194D01*
X0223308Y0056194D01*
X0223060Y0056958D01*
X0222695Y0057673D01*
X0222223Y0058322D01*
X0221656Y0058890D01*
X0221006Y0059362D01*
X0220291Y0059726D01*
X0219528Y0059974D01*
X0218735Y0060100D01*
X0218733Y0060100D01*
X0218733Y0055400D01*
X0217933Y0055400D01*
X0217933Y0060100D01*
X0217932Y0060100D01*
X0217139Y0059974D01*
X0216376Y0059726D01*
X0215660Y0059362D01*
X0215011Y0058890D01*
X0214443Y0058322D01*
X0213971Y0057673D01*
X0213607Y0056958D01*
X0213359Y0056194D01*
X0212657Y0057889D01*
X0211222Y0059324D01*
X0209348Y0060100D01*
X0207319Y0060100D01*
X0205444Y0059324D01*
X0204010Y0057889D01*
X0203333Y0056256D01*
X0202657Y0057889D01*
X0201222Y0059324D01*
X0199348Y0060100D01*
X0197319Y0060100D01*
X0195444Y0059324D01*
X0194010Y0057889D01*
X0193333Y0056256D01*
X0192657Y0057889D01*
X0191222Y0059324D01*
X0189348Y0060100D01*
X0187319Y0060100D01*
X0185444Y0059324D01*
X0184010Y0057889D01*
X0183333Y0056256D01*
X0182657Y0057889D01*
X0181222Y0059324D01*
X0179348Y0060100D01*
X0177319Y0060100D01*
X0175444Y0059324D01*
X0175133Y0059012D01*
X0175133Y0059582D02*
X0176069Y0059582D01*
X0175133Y0060381D02*
X0226333Y0060381D01*
X0226333Y0061179D02*
X0175133Y0061179D01*
X0175133Y0061978D02*
X0226333Y0061978D01*
X0226333Y0062776D02*
X0175133Y0062776D01*
X0175133Y0063575D02*
X0226333Y0063575D01*
X0226333Y0064373D02*
X0175133Y0064373D01*
X0175133Y0065172D02*
X0226333Y0065172D01*
X0226333Y0065970D02*
X0175133Y0065970D01*
X0175133Y0066769D02*
X0226333Y0066769D01*
X0226333Y0067567D02*
X0175133Y0067567D01*
X0175133Y0068366D02*
X0226333Y0068366D01*
X0226333Y0069164D02*
X0224082Y0069164D01*
X0222584Y0069164D02*
X0175133Y0069164D01*
X0175133Y0069963D02*
X0221107Y0069963D01*
X0220407Y0070761D02*
X0175133Y0070761D01*
X0175133Y0071560D02*
X0220077Y0071560D01*
X0219965Y0072358D02*
X0175133Y0072358D01*
X0175133Y0073157D02*
X0219965Y0073157D01*
X0220290Y0073955D02*
X0175133Y0073955D01*
X0175133Y0074754D02*
X0176619Y0074754D01*
X0176422Y0075552D02*
X0175133Y0075552D01*
X0175133Y0076351D02*
X0176422Y0076351D01*
X0176422Y0077149D02*
X0175133Y0077149D01*
X0175133Y0077948D02*
X0176422Y0077948D01*
X0176422Y0078746D02*
X0175133Y0078746D01*
X0175133Y0079545D02*
X0176422Y0079545D01*
X0176717Y0080343D02*
X0175133Y0080343D01*
X0175133Y0081142D02*
X0177146Y0081142D01*
X0176533Y0081940D02*
X0175133Y0081940D01*
X0175133Y0082739D02*
X0176533Y0082739D01*
X0175752Y0083537D02*
X0175133Y0083537D01*
X0175133Y0084336D02*
X0175752Y0084336D01*
X0175752Y0085134D02*
X0175133Y0085134D01*
X0175133Y0085933D02*
X0175752Y0085933D01*
X0175752Y0086732D02*
X0175133Y0086732D01*
X0175133Y0087530D02*
X0175752Y0087530D01*
X0175752Y0088329D02*
X0175133Y0088329D01*
X0175133Y0089127D02*
X0175752Y0089127D01*
X0176259Y0089926D02*
X0175133Y0089926D01*
X0175133Y0090724D02*
X0176533Y0090724D01*
X0177310Y0091523D02*
X0175133Y0091523D01*
X0175133Y0092321D02*
X0178109Y0092321D01*
X0178907Y0093120D02*
X0175133Y0093120D01*
X0175133Y0093918D02*
X0179706Y0093918D01*
X0180504Y0094717D02*
X0175133Y0094717D01*
X0175133Y0095515D02*
X0181303Y0095515D01*
X0182101Y0096314D02*
X0175133Y0096314D01*
X0175133Y0097112D02*
X0182900Y0097112D01*
X0183698Y0097911D02*
X0175133Y0097911D01*
X0175133Y0098709D02*
X0184497Y0098709D01*
X0185295Y0099508D02*
X0175133Y0099508D01*
X0175133Y0100306D02*
X0186094Y0100306D01*
X0186892Y0101105D02*
X0175133Y0101105D01*
X0175133Y0101903D02*
X0204691Y0101903D01*
X0205489Y0102702D02*
X0175133Y0102702D01*
X0175133Y0103500D02*
X0206288Y0103500D01*
X0206533Y0104299D02*
X0175133Y0104299D01*
X0175133Y0105097D02*
X0176236Y0105097D01*
X0176293Y0105041D02*
X0176032Y0105302D01*
X0175848Y0105621D01*
X0175752Y0105977D01*
X0175752Y0108333D01*
X0178143Y0108333D01*
X0178143Y0104761D01*
X0176968Y0104761D01*
X0176612Y0104857D01*
X0176293Y0105041D01*
X0175774Y0105896D02*
X0175133Y0105896D01*
X0175133Y0106694D02*
X0175752Y0106694D01*
X0175752Y0107493D02*
X0175133Y0107493D01*
X0175133Y0108291D02*
X0175752Y0108291D01*
X0175752Y0108714D02*
X0178143Y0108714D01*
X0178143Y0112286D01*
X0176968Y0112286D01*
X0176612Y0112190D01*
X0176293Y0112006D01*
X0176032Y0111745D01*
X0175848Y0111426D01*
X0175752Y0111070D01*
X0175752Y0108714D01*
X0175752Y0109090D02*
X0175133Y0109090D01*
X0175133Y0109888D02*
X0175752Y0109888D01*
X0175752Y0110687D02*
X0175133Y0110687D01*
X0175133Y0111485D02*
X0175882Y0111485D01*
X0175133Y0112284D02*
X0176961Y0112284D01*
X0178143Y0112284D02*
X0178524Y0112284D01*
X0178524Y0111485D02*
X0178143Y0111485D01*
X0178143Y0110687D02*
X0178524Y0110687D01*
X0178524Y0109888D02*
X0178143Y0109888D01*
X0178143Y0109090D02*
X0178524Y0109090D01*
X0178524Y0108291D02*
X0178143Y0108291D01*
X0178143Y0107493D02*
X0178524Y0107493D01*
X0178524Y0106694D02*
X0178143Y0106694D01*
X0178143Y0105896D02*
X0178524Y0105896D01*
X0178524Y0105097D02*
X0178143Y0105097D01*
X0180430Y0105097D02*
X0181236Y0105097D01*
X0185430Y0105097D02*
X0186236Y0105097D01*
X0190430Y0105097D02*
X0191236Y0105097D01*
X0195430Y0105097D02*
X0196236Y0105097D01*
X0200430Y0105097D02*
X0201236Y0105097D01*
X0205430Y0105097D02*
X0206236Y0105097D01*
X0208333Y0103000D02*
X0205333Y0100000D01*
X0188333Y0100000D01*
X0178333Y0090000D01*
X0178333Y0086476D01*
X0178333Y0082500D01*
X0179987Y0080846D01*
X0179987Y0077500D01*
X0181787Y0081142D02*
X0203187Y0081142D01*
X0203728Y0081940D02*
X0181438Y0081940D01*
X0181548Y0082739D02*
X0180640Y0082739D01*
X0183257Y0080343D02*
X0183409Y0080343D01*
X0186280Y0080343D02*
X0187080Y0080343D01*
X0187080Y0079545D02*
X0186280Y0079545D01*
X0186280Y0078746D02*
X0187080Y0078746D01*
X0187080Y0077948D02*
X0186280Y0077948D01*
X0187080Y0077149D02*
X0201422Y0077149D01*
X0201422Y0076351D02*
X0190245Y0076351D01*
X0190245Y0077100D02*
X0187080Y0077100D01*
X0187080Y0074131D01*
X0189029Y0074131D01*
X0189386Y0074227D01*
X0189705Y0074411D01*
X0189965Y0074672D01*
X0190150Y0074991D01*
X0190245Y0075347D01*
X0190245Y0077100D01*
X0190245Y0077948D02*
X0201422Y0077948D01*
X0201422Y0078746D02*
X0190245Y0078746D01*
X0190245Y0079545D02*
X0201422Y0079545D01*
X0201717Y0080343D02*
X0189950Y0080343D01*
X0190119Y0082739D02*
X0191548Y0082739D01*
X0195119Y0082739D02*
X0196548Y0082739D01*
X0200119Y0082739D02*
X0201548Y0082739D01*
X0204987Y0080654D02*
X0205833Y0081500D01*
X0207333Y0081500D01*
X0208333Y0082500D01*
X0208333Y0086476D01*
X0211810Y0086476D01*
X0216593Y0091260D01*
X0218215Y0091260D01*
X0217488Y0088329D02*
X0216207Y0088329D01*
X0216529Y0087530D02*
X0215409Y0087530D01*
X0214610Y0086732D02*
X0216422Y0086732D01*
X0216422Y0085933D02*
X0213812Y0085933D01*
X0213013Y0085134D02*
X0219587Y0085134D01*
X0219587Y0084600D02*
X0216422Y0084600D01*
X0216422Y0082847D01*
X0216517Y0082491D01*
X0216701Y0082172D01*
X0216962Y0081911D01*
X0217281Y0081727D01*
X0217637Y0081631D01*
X0219587Y0081631D01*
X0219587Y0084600D01*
X0219587Y0084336D02*
X0220387Y0084336D01*
X0220387Y0083537D02*
X0219587Y0083537D01*
X0219587Y0082739D02*
X0220387Y0082739D01*
X0220387Y0081940D02*
X0219587Y0081940D01*
X0216933Y0081940D02*
X0210133Y0081940D01*
X0210133Y0082739D02*
X0216451Y0082739D01*
X0216422Y0083537D02*
X0210914Y0083537D01*
X0210914Y0084336D02*
X0216422Y0084336D01*
X0219587Y0085933D02*
X0220387Y0085933D01*
X0220387Y0086732D02*
X0219587Y0086732D01*
X0219587Y0087530D02*
X0220387Y0087530D01*
X0220387Y0088329D02*
X0219587Y0088329D01*
X0218073Y0094859D02*
X0214453Y0094859D01*
X0214453Y0093733D01*
X0214548Y0093377D01*
X0214679Y0093149D01*
X0214453Y0092922D01*
X0214453Y0091665D01*
X0211064Y0088276D01*
X0210914Y0088276D01*
X0210914Y0089418D01*
X0210094Y0090239D01*
X0206572Y0090239D01*
X0205833Y0089500D01*
X0205133Y0090200D01*
X0205133Y0090269D01*
X0205749Y0090886D01*
X0206183Y0091933D01*
X0206183Y0093067D01*
X0205749Y0094114D01*
X0204948Y0094916D01*
X0203900Y0095350D01*
X0202766Y0095350D01*
X0201719Y0094916D01*
X0200917Y0094114D01*
X0200833Y0093912D01*
X0200749Y0094114D01*
X0199948Y0094916D01*
X0198900Y0095350D01*
X0197766Y0095350D01*
X0196719Y0094916D01*
X0195917Y0094114D01*
X0195833Y0093912D01*
X0195749Y0094114D01*
X0194948Y0094916D01*
X0193900Y0095350D01*
X0192766Y0095350D01*
X0191719Y0094916D01*
X0190917Y0094114D01*
X0190833Y0093912D01*
X0190749Y0094114D01*
X0189948Y0094916D01*
X0188900Y0095350D01*
X0187766Y0095350D01*
X0186719Y0094916D01*
X0185917Y0094114D01*
X0185483Y0093067D01*
X0185483Y0091933D01*
X0185917Y0090886D01*
X0186533Y0090269D01*
X0186533Y0090200D01*
X0185833Y0089500D01*
X0185094Y0090239D01*
X0181572Y0090239D01*
X0180833Y0089500D01*
X0180606Y0089727D01*
X0189079Y0098200D01*
X0206079Y0098200D01*
X0210133Y0102254D01*
X0210133Y0104800D01*
X0210914Y0105582D01*
X0210914Y0106724D01*
X0214603Y0106724D01*
X0218633Y0110754D01*
X0218633Y0113200D01*
X0222588Y0113200D01*
X0224880Y0110908D01*
X0224880Y0108368D01*
X0223935Y0108368D01*
X0223317Y0107751D01*
X0223272Y0107828D01*
X0223012Y0108089D01*
X0222693Y0108273D01*
X0222337Y0108368D01*
X0220387Y0108368D01*
X0220387Y0105400D01*
X0219587Y0105400D01*
X0219587Y0108368D01*
X0217637Y0108368D01*
X0217281Y0108273D01*
X0216962Y0108089D01*
X0216701Y0107828D01*
X0216517Y0107509D01*
X0216422Y0107153D01*
X0216422Y0105400D01*
X0219587Y0105400D01*
X0219587Y0104600D01*
X0220387Y0104600D01*
X0220387Y0101631D01*
X0222337Y0101631D01*
X0222693Y0101727D01*
X0223012Y0101911D01*
X0223272Y0102172D01*
X0223317Y0102249D01*
X0223935Y0101631D01*
X0226652Y0101631D01*
X0226652Y0101223D01*
X0225510Y0101223D01*
X0224690Y0100403D01*
X0224690Y0099472D01*
X0224162Y0100000D01*
X0223422Y0100740D01*
X0221640Y0100740D01*
X0221157Y0101223D01*
X0215273Y0101223D01*
X0214453Y0100403D01*
X0214453Y0097078D01*
X0214679Y0096851D01*
X0214548Y0096623D01*
X0214453Y0096267D01*
X0214453Y0095141D01*
X0218073Y0095141D01*
X0218073Y0094859D01*
X0214453Y0094717D02*
X0205147Y0094717D01*
X0205831Y0093918D02*
X0214453Y0093918D01*
X0214650Y0093120D02*
X0206161Y0093120D01*
X0206183Y0092321D02*
X0214453Y0092321D01*
X0214310Y0091523D02*
X0206013Y0091523D01*
X0205588Y0090724D02*
X0213512Y0090724D01*
X0212713Y0089926D02*
X0210407Y0089926D01*
X0210914Y0089127D02*
X0211915Y0089127D01*
X0211116Y0088329D02*
X0210914Y0088329D01*
X0214453Y0095515D02*
X0186394Y0095515D01*
X0186519Y0094717D02*
X0185596Y0094717D01*
X0185836Y0093918D02*
X0184797Y0093918D01*
X0185505Y0093120D02*
X0183999Y0093120D01*
X0183200Y0092321D02*
X0185483Y0092321D01*
X0185653Y0091523D02*
X0182401Y0091523D01*
X0181603Y0090724D02*
X0186079Y0090724D01*
X0186259Y0089926D02*
X0185407Y0089926D01*
X0188333Y0092500D02*
X0188333Y0086476D01*
X0186548Y0082739D02*
X0185119Y0082739D01*
X0186280Y0076351D02*
X0187080Y0076351D01*
X0187080Y0075552D02*
X0186280Y0075552D01*
X0186280Y0074754D02*
X0187080Y0074754D01*
X0190013Y0074754D02*
X0201619Y0074754D01*
X0201422Y0075552D02*
X0190245Y0075552D01*
X0193333Y0086476D02*
X0193333Y0092500D01*
X0191519Y0094717D02*
X0190147Y0094717D01*
X0190831Y0093918D02*
X0190836Y0093918D01*
X0187991Y0097112D02*
X0214453Y0097112D01*
X0214465Y0096314D02*
X0187193Y0096314D01*
X0188790Y0097911D02*
X0214453Y0097911D01*
X0214453Y0098709D02*
X0206588Y0098709D01*
X0207387Y0099508D02*
X0214453Y0099508D01*
X0214453Y0100306D02*
X0208185Y0100306D01*
X0208984Y0101105D02*
X0215155Y0101105D01*
X0216701Y0102172D02*
X0216962Y0101911D01*
X0217281Y0101727D01*
X0217637Y0101631D01*
X0219587Y0101631D01*
X0219587Y0104600D01*
X0216422Y0104600D01*
X0216422Y0102847D01*
X0216517Y0102491D01*
X0216701Y0102172D01*
X0216976Y0101903D02*
X0209782Y0101903D01*
X0210133Y0102702D02*
X0216460Y0102702D01*
X0216422Y0103500D02*
X0210133Y0103500D01*
X0210133Y0104299D02*
X0216422Y0104299D01*
X0216422Y0105896D02*
X0210914Y0105896D01*
X0210914Y0106694D02*
X0216422Y0106694D01*
X0216513Y0107493D02*
X0215372Y0107493D01*
X0216170Y0108291D02*
X0217349Y0108291D01*
X0216969Y0109090D02*
X0224880Y0109090D01*
X0224880Y0109888D02*
X0217767Y0109888D01*
X0218566Y0110687D02*
X0224880Y0110687D01*
X0224302Y0111485D02*
X0218633Y0111485D01*
X0218633Y0112284D02*
X0223504Y0112284D01*
X0222705Y0113082D02*
X0218633Y0113082D01*
X0216833Y0111500D02*
X0213857Y0108524D01*
X0208333Y0108524D01*
X0208333Y0103000D01*
X0210430Y0105097D02*
X0219587Y0105097D01*
X0219587Y0104299D02*
X0220387Y0104299D01*
X0220387Y0103500D02*
X0219587Y0103500D01*
X0219587Y0102702D02*
X0220387Y0102702D01*
X0220387Y0101903D02*
X0219587Y0101903D01*
X0221275Y0101105D02*
X0225392Y0101105D01*
X0224690Y0100306D02*
X0223856Y0100306D01*
X0224654Y0099508D02*
X0224690Y0099508D01*
X0223663Y0101903D02*
X0222998Y0101903D01*
X0220387Y0105896D02*
X0219587Y0105896D01*
X0219587Y0106694D02*
X0220387Y0106694D01*
X0220387Y0107493D02*
X0219587Y0107493D01*
X0219587Y0108291D02*
X0220387Y0108291D01*
X0222625Y0108291D02*
X0223857Y0108291D01*
X0226680Y0105000D02*
X0226680Y0111654D01*
X0223333Y0115000D01*
X0216833Y0115000D01*
X0216833Y0111500D01*
X0216833Y0115000D02*
X0216833Y0121654D01*
X0210833Y0121654D01*
X0207487Y0125000D01*
X0195333Y0125000D01*
X0190341Y0120008D01*
X0190341Y0116122D01*
X0187979Y0116122D02*
X0187979Y0119491D01*
X0187979Y0116122D01*
X0187979Y0116122D01*
X0187979Y0116276D02*
X0187979Y0116276D01*
X0187979Y0117075D02*
X0187979Y0117075D01*
X0187979Y0117873D02*
X0187979Y0117873D01*
X0187979Y0118672D02*
X0187979Y0118672D01*
X0187979Y0119470D02*
X0187979Y0119470D01*
X0187267Y0119470D02*
X0186670Y0119470D01*
X0188541Y0120269D02*
X0175133Y0120269D01*
X0175133Y0121068D02*
X0188855Y0121068D01*
X0187303Y0121866D02*
X0186332Y0121866D01*
X0184436Y0124000D02*
X0184436Y0128563D01*
X0186798Y0128563D02*
X0186798Y0126235D01*
X0188633Y0124400D01*
X0189160Y0128563D02*
X0189160Y0131931D01*
X0188523Y0131931D01*
X0188167Y0131836D01*
X0188014Y0131748D01*
X0187831Y0131931D01*
X0185765Y0131931D01*
X0185617Y0131783D01*
X0185468Y0131931D01*
X0183403Y0131931D01*
X0183219Y0131748D01*
X0183067Y0131836D01*
X0182711Y0131931D01*
X0182074Y0131931D01*
X0182074Y0128563D01*
X0182073Y0128563D01*
X0182073Y0131931D01*
X0181511Y0131931D01*
X0181511Y0135632D01*
X0187425Y0141546D01*
X0191440Y0141546D01*
X0191035Y0140567D01*
X0191035Y0139433D01*
X0191468Y0138386D01*
X0192085Y0137769D01*
X0192085Y0131931D01*
X0190490Y0131931D01*
X0190306Y0131748D01*
X0190153Y0131836D01*
X0189797Y0131931D01*
X0189160Y0131931D01*
X0189160Y0128563D01*
X0189160Y0128563D01*
X0189160Y0129053D02*
X0189160Y0129053D01*
X0189160Y0129851D02*
X0189160Y0129851D01*
X0189160Y0130650D02*
X0189160Y0130650D01*
X0189160Y0131448D02*
X0189160Y0131448D01*
X0192085Y0132247D02*
X0181511Y0132247D01*
X0181511Y0133045D02*
X0192085Y0133045D01*
X0192085Y0133844D02*
X0181511Y0133844D01*
X0181511Y0134642D02*
X0192085Y0134642D01*
X0192085Y0135441D02*
X0181511Y0135441D01*
X0182118Y0136239D02*
X0192085Y0136239D01*
X0192085Y0137038D02*
X0182917Y0137038D01*
X0183715Y0137836D02*
X0192018Y0137836D01*
X0191365Y0138635D02*
X0184514Y0138635D01*
X0185312Y0139433D02*
X0191035Y0139433D01*
X0191035Y0140232D02*
X0186111Y0140232D01*
X0186909Y0141030D02*
X0191226Y0141030D01*
X0193885Y0140000D02*
X0193885Y0143295D01*
X0193833Y0143346D01*
X0186680Y0143346D01*
X0179711Y0136378D01*
X0179711Y0128563D01*
X0177859Y0128254D02*
X0175133Y0128254D01*
X0175133Y0127456D02*
X0177859Y0127456D01*
X0177859Y0126657D02*
X0175133Y0126657D01*
X0175133Y0125859D02*
X0178015Y0125859D01*
X0175133Y0125060D02*
X0181790Y0125060D01*
X0181586Y0124262D02*
X0175133Y0124262D01*
X0175133Y0123463D02*
X0181586Y0123463D01*
X0181904Y0122665D02*
X0175133Y0122665D01*
X0175133Y0121866D02*
X0182539Y0121866D01*
X0182202Y0119470D02*
X0181604Y0119470D01*
X0180892Y0119470D02*
X0180892Y0119470D01*
X0180180Y0119470D02*
X0175133Y0119470D01*
X0175133Y0118672D02*
X0179159Y0118672D01*
X0179040Y0117873D02*
X0175133Y0117873D01*
X0175133Y0117075D02*
X0179040Y0117075D01*
X0179040Y0116276D02*
X0175133Y0116276D01*
X0175133Y0115478D02*
X0179040Y0115478D01*
X0179040Y0114679D02*
X0175133Y0114679D01*
X0175133Y0113881D02*
X0179063Y0113881D01*
X0179531Y0113082D02*
X0175133Y0113082D01*
X0179706Y0112284D02*
X0181570Y0112284D01*
X0180892Y0113082D02*
X0180892Y0113082D01*
X0180892Y0113881D02*
X0180892Y0113881D01*
X0180892Y0114679D02*
X0180892Y0114679D01*
X0180892Y0115478D02*
X0180892Y0115478D01*
X0180892Y0116276D02*
X0180892Y0116276D01*
X0180892Y0117075D02*
X0180892Y0117075D01*
X0180892Y0117873D02*
X0180892Y0117873D01*
X0180892Y0118672D02*
X0180892Y0118672D01*
X0184307Y0119470D02*
X0184564Y0119470D01*
X0192703Y0119370D02*
X0194790Y0121457D01*
X0204333Y0121457D01*
X0200571Y0126800D02*
X0195737Y0126800D01*
X0195737Y0131111D01*
X0195684Y0131164D01*
X0195684Y0137769D01*
X0196301Y0138386D01*
X0196734Y0139433D01*
X0196734Y0140567D01*
X0196329Y0141546D01*
X0201465Y0141546D01*
X0201465Y0140601D01*
X0202082Y0139984D01*
X0202005Y0139939D01*
X0201745Y0139679D01*
X0201560Y0139359D01*
X0201465Y0139003D01*
X0201465Y0137054D01*
X0204433Y0137054D01*
X0204433Y0136254D01*
X0201465Y0136254D01*
X0201465Y0134304D01*
X0201560Y0133948D01*
X0201745Y0133629D01*
X0202005Y0133368D01*
X0202324Y0133184D01*
X0202680Y0133088D01*
X0204433Y0133088D01*
X0204433Y0136253D01*
X0205233Y0136253D01*
X0205233Y0133088D01*
X0206986Y0133088D01*
X0207342Y0133184D01*
X0207661Y0133368D01*
X0207922Y0133629D01*
X0208040Y0133833D01*
X0208112Y0133762D01*
X0208431Y0133577D01*
X0208787Y0133482D01*
X0210946Y0133482D01*
X0210946Y0136069D01*
X0211721Y0136069D01*
X0211721Y0133482D01*
X0213880Y0133482D01*
X0214236Y0133577D01*
X0214555Y0133762D01*
X0214816Y0134022D01*
X0214833Y0134053D01*
X0214851Y0134022D01*
X0215112Y0133762D01*
X0215431Y0133577D01*
X0215787Y0133482D01*
X0217946Y0133482D01*
X0217946Y0136069D01*
X0218721Y0136069D01*
X0218721Y0136844D01*
X0222096Y0136844D01*
X0222096Y0138216D01*
X0222000Y0138572D01*
X0221816Y0138891D01*
X0221555Y0139152D01*
X0221236Y0139336D01*
X0220880Y0139431D01*
X0218721Y0139431D01*
X0218721Y0136844D01*
X0217946Y0136844D01*
X0217946Y0136069D01*
X0211721Y0136069D01*
X0211721Y0136844D01*
X0215096Y0136844D01*
X0217946Y0136844D01*
X0217946Y0139431D01*
X0215787Y0139431D01*
X0215431Y0139336D01*
X0215112Y0139152D01*
X0214851Y0138891D01*
X0214833Y0138861D01*
X0214816Y0138891D01*
X0214555Y0139152D01*
X0214236Y0139336D01*
X0213880Y0139431D01*
X0211721Y0139431D01*
X0211721Y0136844D01*
X0210946Y0136844D01*
X0210946Y0136069D01*
X0208202Y0136069D01*
X0208202Y0136254D01*
X0205233Y0136254D01*
X0205233Y0137054D01*
X0207571Y0137054D01*
X0207571Y0136844D01*
X0210946Y0136844D01*
X0210946Y0139431D01*
X0208787Y0139431D01*
X0208431Y0139336D01*
X0208155Y0139177D01*
X0208106Y0139359D01*
X0207922Y0139679D01*
X0207661Y0139939D01*
X0207584Y0139984D01*
X0208202Y0140601D01*
X0208202Y0140758D01*
X0208391Y0140569D01*
X0214275Y0140569D01*
X0214833Y0141126D01*
X0215391Y0140569D01*
X0221275Y0140569D01*
X0222096Y0141389D01*
X0222096Y0145698D01*
X0221275Y0146518D01*
X0219661Y0146518D01*
X0219661Y0146966D01*
X0219681Y0146966D01*
X0220501Y0147786D01*
X0220501Y0148200D01*
X0222079Y0148200D01*
X0223732Y0149854D01*
X0224965Y0149854D01*
X0224965Y0148908D01*
X0225785Y0148088D01*
X0230882Y0148088D01*
X0231533Y0148740D01*
X0231533Y0101083D01*
X0231394Y0101223D01*
X0230252Y0101223D01*
X0230252Y0103974D01*
X0230245Y0103980D01*
X0230245Y0107548D01*
X0229425Y0108368D01*
X0228480Y0108368D01*
X0228480Y0112399D01*
X0227425Y0113454D01*
X0225133Y0115746D01*
X0224079Y0116800D01*
X0218633Y0116800D01*
X0218633Y0118088D01*
X0219382Y0118088D01*
X0220202Y0118908D01*
X0220202Y0124399D01*
X0219584Y0125016D01*
X0219661Y0125061D01*
X0219922Y0125321D01*
X0220106Y0125641D01*
X0220202Y0125997D01*
X0220202Y0127946D01*
X0217233Y0127946D01*
X0217233Y0128746D01*
X0220202Y0128746D01*
X0220202Y0130696D01*
X0220106Y0131052D01*
X0219922Y0131371D01*
X0219661Y0131632D01*
X0219342Y0131816D01*
X0218986Y0131912D01*
X0217233Y0131912D01*
X0217233Y0128746D01*
X0216433Y0128746D01*
X0216433Y0127946D01*
X0213465Y0127946D01*
X0211233Y0127946D01*
X0211233Y0128746D01*
X0216433Y0128746D01*
X0216433Y0131912D01*
X0214680Y0131912D01*
X0214324Y0131816D01*
X0214005Y0131632D01*
X0213833Y0131460D01*
X0213661Y0131632D01*
X0213342Y0131816D01*
X0212986Y0131912D01*
X0211233Y0131912D01*
X0211233Y0128746D01*
X0210433Y0128746D01*
X0210433Y0127946D01*
X0208096Y0127946D01*
X0208096Y0128156D01*
X0204721Y0128156D01*
X0204721Y0128931D01*
X0203946Y0128931D01*
X0203946Y0131518D01*
X0201787Y0131518D01*
X0201431Y0131423D01*
X0201112Y0131238D01*
X0200851Y0130978D01*
X0200667Y0130658D01*
X0200571Y0130302D01*
X0200571Y0128931D01*
X0203946Y0128931D01*
X0203946Y0128156D01*
X0200571Y0128156D01*
X0200571Y0126800D01*
X0200571Y0127456D02*
X0195737Y0127456D01*
X0195737Y0128254D02*
X0203946Y0128254D01*
X0204721Y0128254D02*
X0210433Y0128254D01*
X0210433Y0128746D02*
X0207465Y0128746D01*
X0207465Y0128931D01*
X0204721Y0128931D01*
X0204721Y0131518D01*
X0206880Y0131518D01*
X0207236Y0131423D01*
X0207555Y0131238D01*
X0207627Y0131167D01*
X0207745Y0131371D01*
X0208005Y0131632D01*
X0208324Y0131816D01*
X0208680Y0131912D01*
X0210433Y0131912D01*
X0210433Y0128746D01*
X0210433Y0129053D02*
X0211233Y0129053D01*
X0211233Y0129851D02*
X0210433Y0129851D01*
X0210433Y0130650D02*
X0211233Y0130650D01*
X0211233Y0131448D02*
X0210433Y0131448D01*
X0210946Y0133844D02*
X0211721Y0133844D01*
X0211721Y0134642D02*
X0210946Y0134642D01*
X0210946Y0135441D02*
X0211721Y0135441D01*
X0211721Y0136239D02*
X0217946Y0136239D01*
X0218721Y0136239D02*
X0231533Y0136239D01*
X0231533Y0135441D02*
X0222096Y0135441D01*
X0222096Y0136069D02*
X0218721Y0136069D01*
X0218721Y0133482D01*
X0220880Y0133482D01*
X0221236Y0133577D01*
X0221555Y0133762D01*
X0221816Y0134022D01*
X0222000Y0134341D01*
X0222096Y0134698D01*
X0222096Y0136069D01*
X0222096Y0137038D02*
X0231533Y0137038D01*
X0231533Y0137836D02*
X0222096Y0137836D01*
X0221964Y0138635D02*
X0231533Y0138635D01*
X0231533Y0139433D02*
X0208064Y0139433D01*
X0207832Y0140232D02*
X0231533Y0140232D01*
X0231533Y0141030D02*
X0221737Y0141030D01*
X0222096Y0141829D02*
X0231533Y0141829D01*
X0231533Y0142627D02*
X0222096Y0142627D01*
X0222096Y0143426D02*
X0231533Y0143426D01*
X0231533Y0144224D02*
X0222096Y0144224D01*
X0222096Y0145023D02*
X0231533Y0145023D01*
X0231533Y0145821D02*
X0221972Y0145821D01*
X0222096Y0148217D02*
X0225656Y0148217D01*
X0224965Y0149015D02*
X0222894Y0149015D01*
X0223693Y0149814D02*
X0224965Y0149814D01*
X0222987Y0151654D02*
X0221333Y0150000D01*
X0217861Y0150000D01*
X0217861Y0144016D01*
X0218333Y0143543D01*
X0211333Y0143543D01*
X0211136Y0143346D01*
X0204833Y0143346D01*
X0193833Y0143346D01*
X0193885Y0140000D02*
X0193885Y0128563D01*
X0195737Y0129053D02*
X0200571Y0129053D01*
X0200571Y0129851D02*
X0195737Y0129851D01*
X0195737Y0130650D02*
X0200664Y0130650D01*
X0201526Y0131448D02*
X0195684Y0131448D01*
X0195684Y0132247D02*
X0231533Y0132247D01*
X0231533Y0133045D02*
X0195684Y0133045D01*
X0195684Y0133844D02*
X0201620Y0133844D01*
X0201465Y0134642D02*
X0195684Y0134642D01*
X0195684Y0135441D02*
X0201465Y0135441D01*
X0201465Y0136239D02*
X0195684Y0136239D01*
X0195684Y0137038D02*
X0204433Y0137038D01*
X0204433Y0136239D02*
X0205233Y0136239D01*
X0205233Y0135441D02*
X0204433Y0135441D01*
X0204433Y0134642D02*
X0205233Y0134642D01*
X0205233Y0133844D02*
X0204433Y0133844D01*
X0204721Y0131448D02*
X0203946Y0131448D01*
X0203946Y0130650D02*
X0204721Y0130650D01*
X0204721Y0129851D02*
X0203946Y0129851D01*
X0203946Y0129053D02*
X0204721Y0129053D01*
X0207141Y0131448D02*
X0207821Y0131448D01*
X0211233Y0128254D02*
X0216433Y0128254D01*
X0216433Y0129053D02*
X0217233Y0129053D01*
X0217233Y0129851D02*
X0216433Y0129851D01*
X0216433Y0130650D02*
X0217233Y0130650D01*
X0217233Y0131448D02*
X0216433Y0131448D01*
X0215029Y0133844D02*
X0214637Y0133844D01*
X0217946Y0133844D02*
X0218721Y0133844D01*
X0218721Y0134642D02*
X0217946Y0134642D01*
X0217946Y0135441D02*
X0218721Y0135441D01*
X0218721Y0137038D02*
X0217946Y0137038D01*
X0217946Y0137836D02*
X0218721Y0137836D01*
X0218721Y0138635D02*
X0217946Y0138635D01*
X0214929Y0141030D02*
X0214737Y0141030D01*
X0211721Y0138635D02*
X0210946Y0138635D01*
X0210946Y0137836D02*
X0211721Y0137836D01*
X0211721Y0137038D02*
X0210946Y0137038D01*
X0210946Y0136239D02*
X0208202Y0136239D01*
X0207571Y0137038D02*
X0205233Y0137038D01*
X0201465Y0137836D02*
X0195751Y0137836D01*
X0196404Y0138635D02*
X0201465Y0138635D01*
X0201603Y0139433D02*
X0196734Y0139433D01*
X0196734Y0140232D02*
X0201834Y0140232D01*
X0201465Y0141030D02*
X0196543Y0141030D01*
X0201465Y0145821D02*
X0175133Y0145821D01*
X0175133Y0145023D02*
X0185811Y0145023D01*
X0185012Y0144224D02*
X0175133Y0144224D01*
X0175133Y0143426D02*
X0184214Y0143426D01*
X0183415Y0142627D02*
X0175133Y0142627D01*
X0175133Y0141829D02*
X0182617Y0141829D01*
X0181818Y0141030D02*
X0175133Y0141030D01*
X0175133Y0140232D02*
X0181020Y0140232D01*
X0180221Y0139433D02*
X0175133Y0139433D01*
X0175133Y0138635D02*
X0179423Y0138635D01*
X0178624Y0137836D02*
X0175133Y0137836D01*
X0175133Y0137038D02*
X0177911Y0137038D01*
X0177911Y0136239D02*
X0175133Y0136239D01*
X0175133Y0135441D02*
X0177911Y0135441D01*
X0177911Y0134642D02*
X0175133Y0134642D01*
X0175133Y0133844D02*
X0177911Y0133844D01*
X0177911Y0133045D02*
X0175133Y0133045D01*
X0175133Y0132247D02*
X0177911Y0132247D01*
X0177911Y0131448D02*
X0175133Y0131448D01*
X0175133Y0130650D02*
X0177859Y0130650D01*
X0177859Y0129851D02*
X0175133Y0129851D01*
X0175133Y0129053D02*
X0177859Y0129053D01*
X0182073Y0129053D02*
X0182074Y0129053D01*
X0182073Y0129851D02*
X0182074Y0129851D01*
X0182073Y0130650D02*
X0182074Y0130650D01*
X0182073Y0131448D02*
X0182074Y0131448D01*
X0175133Y0146620D02*
X0201993Y0146620D01*
X0206166Y0148217D02*
X0175133Y0148217D01*
X0175133Y0149015D02*
X0206166Y0149015D01*
X0206166Y0149814D02*
X0175133Y0149814D01*
X0175133Y0150612D02*
X0206166Y0150612D01*
X0206166Y0151411D02*
X0175133Y0151411D01*
X0175133Y0152209D02*
X0206166Y0152209D01*
X0203997Y0153008D02*
X0175133Y0153008D01*
X0175133Y0153806D02*
X0203198Y0153806D01*
X0202400Y0154605D02*
X0175133Y0154605D01*
X0175133Y0155403D02*
X0201601Y0155403D01*
X0201333Y0156202D02*
X0175133Y0156202D01*
X0175133Y0157001D02*
X0201333Y0157001D01*
X0197334Y0157799D02*
X0175133Y0157799D01*
X0175133Y0158598D02*
X0196618Y0158598D01*
X0196618Y0159396D02*
X0175133Y0159396D01*
X0175133Y0160195D02*
X0196618Y0160195D01*
X0196618Y0160993D02*
X0175133Y0160993D01*
X0175133Y0161792D02*
X0196618Y0161792D01*
X0196618Y0162590D02*
X0175133Y0162590D01*
X0175133Y0163389D02*
X0197183Y0163389D01*
X0197438Y0166356D02*
X0209228Y0166356D01*
X0210048Y0167176D01*
X0210048Y0171485D01*
X0209228Y0172305D01*
X0205467Y0172305D01*
X0206162Y0173000D01*
X0212110Y0173000D01*
X0212110Y0167176D01*
X0212931Y0166356D01*
X0216256Y0166356D01*
X0217076Y0167176D01*
X0217076Y0173000D01*
X0219591Y0173000D01*
X0219591Y0167176D01*
X0220411Y0166356D01*
X0223736Y0166356D01*
X0224556Y0167176D01*
X0224556Y0173061D01*
X0224073Y0173543D01*
X0224073Y0174569D01*
X0223680Y0174962D01*
X0223680Y0175131D01*
X0224425Y0175131D01*
X0224965Y0175671D01*
X0224965Y0173746D01*
X0227933Y0173746D01*
X0227933Y0176912D01*
X0226180Y0176912D01*
X0225824Y0176816D01*
X0225505Y0176632D01*
X0225245Y0176372D01*
X0225245Y0181048D01*
X0224425Y0181868D01*
X0223680Y0181868D01*
X0223680Y0182969D01*
X0224096Y0183386D01*
X0224530Y0184433D01*
X0224530Y0185567D01*
X0224096Y0186614D01*
X0223294Y0187416D01*
X0222247Y0187850D01*
X0221113Y0187850D01*
X0220065Y0187416D01*
X0219264Y0186614D01*
X0218830Y0185567D01*
X0218830Y0184433D01*
X0219264Y0183386D01*
X0219680Y0182969D01*
X0219680Y0181868D01*
X0218935Y0181868D01*
X0218317Y0181251D01*
X0218272Y0181328D01*
X0218012Y0181589D01*
X0217693Y0181773D01*
X0217337Y0181868D01*
X0215387Y0181868D01*
X0215387Y0178900D01*
X0214587Y0178900D01*
X0214587Y0181868D01*
X0212637Y0181868D01*
X0212281Y0181773D01*
X0211962Y0181589D01*
X0211701Y0181328D01*
X0211517Y0181009D01*
X0211422Y0180653D01*
X0211422Y0178900D01*
X0214587Y0178900D01*
X0214587Y0178100D01*
X0211422Y0178100D01*
X0211422Y0177000D01*
X0204505Y0177000D01*
X0203333Y0175828D01*
X0201333Y0173828D01*
X0201333Y0172305D01*
X0197438Y0172305D01*
X0196618Y0171485D01*
X0196618Y0167176D01*
X0197438Y0166356D01*
X0197212Y0166583D02*
X0175133Y0166583D01*
X0175133Y0167381D02*
X0196618Y0167381D01*
X0196618Y0168180D02*
X0175133Y0168180D01*
X0175133Y0168978D02*
X0196618Y0168978D01*
X0196618Y0169777D02*
X0175133Y0169777D01*
X0175133Y0170575D02*
X0196618Y0170575D01*
X0196618Y0171374D02*
X0186239Y0171374D01*
X0187954Y0171998D02*
X0187954Y0171998D01*
X0188162Y0172172D02*
X0197305Y0172172D01*
X0201333Y0172971D02*
X0189113Y0172971D01*
X0190065Y0173769D02*
X0201333Y0173769D01*
X0202073Y0174568D02*
X0190705Y0174568D01*
X0191166Y0175366D02*
X0202871Y0175366D01*
X0203670Y0176165D02*
X0191627Y0176165D01*
X0192016Y0176840D02*
X0192016Y0176840D01*
X0192038Y0176963D02*
X0204468Y0176963D01*
X0206132Y0172971D02*
X0212110Y0172971D01*
X0212110Y0172172D02*
X0209361Y0172172D01*
X0210048Y0171374D02*
X0212110Y0171374D01*
X0212110Y0170575D02*
X0210048Y0170575D01*
X0210048Y0169777D02*
X0212110Y0169777D01*
X0212110Y0168978D02*
X0210048Y0168978D01*
X0210048Y0168180D02*
X0212110Y0168180D01*
X0212110Y0167381D02*
X0210048Y0167381D01*
X0209455Y0166583D02*
X0212704Y0166583D01*
X0212676Y0163389D02*
X0209484Y0163389D01*
X0210048Y0162590D02*
X0212110Y0162590D01*
X0212110Y0161792D02*
X0210048Y0161792D01*
X0210048Y0160993D02*
X0212110Y0160993D01*
X0212110Y0160195D02*
X0210048Y0160195D01*
X0210048Y0159396D02*
X0212110Y0159396D01*
X0212110Y0158598D02*
X0210048Y0158598D01*
X0209333Y0157799D02*
X0212110Y0157799D01*
X0212110Y0157001D02*
X0205661Y0157001D01*
X0206533Y0147418D02*
X0175133Y0147418D01*
X0175133Y0164187D02*
X0224965Y0164187D01*
X0224965Y0164986D02*
X0175133Y0164986D01*
X0175133Y0165784D02*
X0224965Y0165784D01*
X0224965Y0166583D02*
X0223962Y0166583D01*
X0224556Y0167381D02*
X0224965Y0167381D01*
X0224965Y0168180D02*
X0224556Y0168180D01*
X0224556Y0168978D02*
X0224965Y0168978D01*
X0225343Y0169777D02*
X0224556Y0169777D01*
X0224556Y0170575D02*
X0225098Y0170575D01*
X0224965Y0171374D02*
X0224556Y0171374D01*
X0224556Y0172172D02*
X0224965Y0172172D01*
X0224556Y0172971D02*
X0227933Y0172971D01*
X0227933Y0173769D02*
X0228733Y0173769D01*
X0228733Y0174568D02*
X0227933Y0174568D01*
X0227933Y0175366D02*
X0228733Y0175366D01*
X0228733Y0176165D02*
X0227933Y0176165D01*
X0225245Y0176963D02*
X0231533Y0176963D01*
X0231533Y0177762D02*
X0225245Y0177762D01*
X0225245Y0178560D02*
X0231533Y0178560D01*
X0231533Y0179359D02*
X0225245Y0179359D01*
X0225245Y0180157D02*
X0231533Y0180157D01*
X0231533Y0180956D02*
X0225245Y0180956D01*
X0224539Y0181754D02*
X0231533Y0181754D01*
X0231533Y0182553D02*
X0223680Y0182553D01*
X0224062Y0183351D02*
X0231533Y0183351D01*
X0231533Y0184150D02*
X0224412Y0184150D01*
X0224530Y0184948D02*
X0231533Y0184948D01*
X0231533Y0185747D02*
X0224455Y0185747D01*
X0224124Y0186545D02*
X0231533Y0186545D01*
X0231533Y0187344D02*
X0223366Y0187344D01*
X0219993Y0187344D02*
X0195753Y0187344D01*
X0196339Y0186545D02*
X0219235Y0186545D01*
X0218904Y0185747D02*
X0196670Y0185747D01*
X0196702Y0184948D02*
X0218830Y0184948D01*
X0218947Y0184150D02*
X0196627Y0184150D01*
X0196296Y0183351D02*
X0219298Y0183351D01*
X0219680Y0182553D02*
X0195650Y0182553D01*
X0194300Y0181754D02*
X0212249Y0181754D01*
X0211503Y0180956D02*
X0192405Y0180956D01*
X0192367Y0181754D02*
X0192264Y0181754D01*
X0192546Y0180157D02*
X0211422Y0180157D01*
X0211422Y0179359D02*
X0192461Y0179359D01*
X0192574Y0180000D02*
X0192574Y0180000D01*
X0192320Y0178560D02*
X0214587Y0178560D01*
X0214587Y0179359D02*
X0215387Y0179359D01*
X0215387Y0180157D02*
X0214587Y0180157D01*
X0214587Y0180956D02*
X0215387Y0180956D01*
X0215387Y0181754D02*
X0214587Y0181754D01*
X0217725Y0181754D02*
X0218820Y0181754D01*
X0211422Y0177762D02*
X0192179Y0177762D01*
X0194549Y0188142D02*
X0231533Y0188142D01*
X0224965Y0175366D02*
X0224660Y0175366D01*
X0224965Y0174568D02*
X0224073Y0174568D01*
X0224073Y0173769D02*
X0224965Y0173769D01*
X0219591Y0172971D02*
X0217076Y0172971D01*
X0217076Y0172172D02*
X0219591Y0172172D01*
X0219591Y0171374D02*
X0217076Y0171374D01*
X0217076Y0170575D02*
X0219591Y0170575D01*
X0219591Y0169777D02*
X0217076Y0169777D01*
X0217076Y0168978D02*
X0219591Y0168978D01*
X0219591Y0168180D02*
X0217076Y0168180D01*
X0217076Y0167381D02*
X0219591Y0167381D01*
X0220185Y0166583D02*
X0216482Y0166583D01*
X0218192Y0163389D02*
X0218475Y0163389D01*
X0218475Y0162590D02*
X0218192Y0162590D01*
X0218192Y0161792D02*
X0218475Y0161792D01*
X0218475Y0160993D02*
X0218192Y0160993D01*
X0218192Y0160195D02*
X0218475Y0160195D01*
X0218475Y0159396D02*
X0218192Y0159396D01*
X0218192Y0158598D02*
X0218475Y0158598D01*
X0218475Y0157799D02*
X0218192Y0157799D01*
X0218192Y0157001D02*
X0218475Y0157001D01*
X0218475Y0156202D02*
X0218192Y0156202D01*
X0216758Y0156202D02*
X0216593Y0156202D01*
X0216565Y0155403D02*
X0225163Y0155403D01*
X0225171Y0154605D02*
X0215767Y0154605D01*
X0214968Y0153806D02*
X0224965Y0153806D01*
X0224965Y0156202D02*
X0223819Y0156202D01*
X0224556Y0157001D02*
X0224965Y0157001D01*
X0224965Y0157799D02*
X0224556Y0157799D01*
X0220328Y0156202D02*
X0219909Y0156202D01*
X0219707Y0153008D02*
X0221796Y0153008D01*
X0220997Y0152209D02*
X0220501Y0152209D01*
X0222987Y0151654D02*
X0228333Y0151654D01*
X0231010Y0148217D02*
X0231533Y0148217D01*
X0231533Y0147418D02*
X0220133Y0147418D01*
X0219661Y0146620D02*
X0231533Y0146620D01*
X0231533Y0134642D02*
X0222081Y0134642D01*
X0221637Y0133844D02*
X0231533Y0133844D01*
X0231533Y0131448D02*
X0219845Y0131448D01*
X0220202Y0130650D02*
X0231533Y0130650D01*
X0231533Y0129851D02*
X0220202Y0129851D01*
X0220202Y0129053D02*
X0231533Y0129053D01*
X0231533Y0128254D02*
X0217233Y0128254D01*
X0220202Y0127456D02*
X0231533Y0127456D01*
X0231533Y0126657D02*
X0220202Y0126657D01*
X0220165Y0125859D02*
X0231533Y0125859D01*
X0231533Y0125060D02*
X0219660Y0125060D01*
X0220202Y0124262D02*
X0231533Y0124262D01*
X0231533Y0123463D02*
X0220202Y0123463D01*
X0220202Y0122665D02*
X0231533Y0122665D01*
X0231533Y0121866D02*
X0220202Y0121866D01*
X0220202Y0121068D02*
X0231533Y0121068D01*
X0231533Y0120269D02*
X0220202Y0120269D01*
X0220202Y0119470D02*
X0231533Y0119470D01*
X0231533Y0118672D02*
X0219966Y0118672D01*
X0218633Y0117873D02*
X0231533Y0117873D01*
X0231533Y0117075D02*
X0218633Y0117075D01*
X0224602Y0116276D02*
X0231533Y0116276D01*
X0231533Y0115478D02*
X0225401Y0115478D01*
X0226199Y0114679D02*
X0231533Y0114679D01*
X0231533Y0113881D02*
X0226998Y0113881D01*
X0227425Y0113454D02*
X0227425Y0113454D01*
X0227797Y0113082D02*
X0231533Y0113082D01*
X0231533Y0112284D02*
X0228480Y0112284D01*
X0228480Y0111485D02*
X0231533Y0111485D01*
X0231533Y0110687D02*
X0228480Y0110687D01*
X0228480Y0109888D02*
X0231533Y0109888D01*
X0231533Y0109090D02*
X0228480Y0109090D01*
X0229502Y0108291D02*
X0231533Y0108291D01*
X0231533Y0107493D02*
X0230245Y0107493D01*
X0230245Y0106694D02*
X0231533Y0106694D01*
X0231533Y0105896D02*
X0230245Y0105896D01*
X0230245Y0105097D02*
X0231533Y0105097D01*
X0231533Y0104299D02*
X0230245Y0104299D01*
X0230252Y0103500D02*
X0231533Y0103500D01*
X0231533Y0102702D02*
X0230252Y0102702D01*
X0230252Y0101903D02*
X0231533Y0101903D01*
X0231512Y0101105D02*
X0231533Y0101105D01*
X0228452Y0103228D02*
X0226680Y0105000D01*
X0228452Y0103228D02*
X0228452Y0098740D01*
X0223626Y0081940D02*
X0223041Y0081940D01*
X0224680Y0081142D02*
X0209521Y0081142D01*
X0211280Y0080343D02*
X0212080Y0080343D01*
X0212080Y0079545D02*
X0211280Y0079545D01*
X0211280Y0078746D02*
X0212080Y0078746D01*
X0212080Y0077948D02*
X0211280Y0077948D01*
X0212080Y0077149D02*
X0226333Y0077149D01*
X0226333Y0076351D02*
X0215245Y0076351D01*
X0215245Y0077100D02*
X0212080Y0077100D01*
X0212080Y0074131D01*
X0214029Y0074131D01*
X0214386Y0074227D01*
X0214705Y0074411D01*
X0214965Y0074672D01*
X0215150Y0074991D01*
X0215245Y0075347D01*
X0215245Y0077100D01*
X0215245Y0077948D02*
X0226333Y0077948D01*
X0225758Y0078746D02*
X0215245Y0078746D01*
X0215245Y0079545D02*
X0224960Y0079545D01*
X0224680Y0080343D02*
X0214950Y0080343D01*
X0215245Y0075552D02*
X0221900Y0075552D01*
X0220823Y0074754D02*
X0215013Y0074754D01*
X0212080Y0074754D02*
X0211280Y0074754D01*
X0211280Y0075552D02*
X0212080Y0075552D01*
X0212080Y0076351D02*
X0211280Y0076351D01*
X0204987Y0077500D02*
X0204987Y0080654D01*
X0203333Y0086476D02*
X0203333Y0092500D01*
X0201519Y0094717D02*
X0200147Y0094717D01*
X0200831Y0093918D02*
X0200836Y0093918D01*
X0198333Y0092500D02*
X0198333Y0086476D01*
X0205407Y0089926D02*
X0206259Y0089926D01*
X0196519Y0094717D02*
X0195147Y0094717D01*
X0195831Y0093918D02*
X0195836Y0093918D01*
X0181259Y0089926D02*
X0180804Y0089926D01*
X0180598Y0059582D02*
X0186069Y0059582D01*
X0184904Y0058784D02*
X0181762Y0058784D01*
X0182561Y0057985D02*
X0184106Y0057985D01*
X0183719Y0057187D02*
X0182948Y0057187D01*
X0183279Y0056388D02*
X0183388Y0056388D01*
X0190598Y0059582D02*
X0196069Y0059582D01*
X0194904Y0058784D02*
X0191762Y0058784D01*
X0192561Y0057985D02*
X0194106Y0057985D01*
X0193719Y0057187D02*
X0192948Y0057187D01*
X0193279Y0056388D02*
X0193388Y0056388D01*
X0200598Y0059582D02*
X0206069Y0059582D01*
X0204904Y0058784D02*
X0201762Y0058784D01*
X0202561Y0057985D02*
X0204106Y0057985D01*
X0203719Y0057187D02*
X0202948Y0057187D01*
X0203279Y0056388D02*
X0203388Y0056388D01*
X0210598Y0059582D02*
X0216093Y0059582D01*
X0214904Y0058784D02*
X0211762Y0058784D01*
X0212561Y0057985D02*
X0214198Y0057985D01*
X0213724Y0057187D02*
X0212948Y0057187D01*
X0213279Y0056388D02*
X0213422Y0056388D01*
X0213359Y0056194D02*
X0213359Y0056194D01*
X0217933Y0056388D02*
X0218733Y0056388D01*
X0218733Y0055590D02*
X0217933Y0055590D01*
X0217933Y0057187D02*
X0218733Y0057187D01*
X0218733Y0057985D02*
X0217933Y0057985D01*
X0217933Y0058784D02*
X0218733Y0058784D01*
X0218733Y0059582D02*
X0217933Y0059582D01*
X0220574Y0059582D02*
X0226069Y0059582D01*
X0224904Y0058784D02*
X0221762Y0058784D01*
X0222468Y0057985D02*
X0224106Y0057985D01*
X0223719Y0057187D02*
X0222943Y0057187D01*
X0223245Y0056388D02*
X0223388Y0056388D01*
X0225560Y0069963D02*
X0226333Y0069963D01*
X0226333Y0070761D02*
X0226259Y0070761D01*
X0226333Y0074754D02*
X0225843Y0074754D01*
X0226333Y0075552D02*
X0224767Y0075552D01*
X0216061Y0146620D02*
X0207674Y0146620D01*
X0211078Y0147418D02*
X0215589Y0147418D01*
X0215221Y0148217D02*
X0211446Y0148217D01*
X0211446Y0149015D02*
X0215221Y0149015D01*
X0215221Y0149814D02*
X0211446Y0149814D01*
X0211446Y0150612D02*
X0215221Y0150612D01*
X0215221Y0151411D02*
X0211446Y0151411D01*
X0211446Y0152209D02*
X0215221Y0152209D01*
X0216015Y0153008D02*
X0214170Y0153008D01*
X0223991Y0163389D02*
X0224894Y0163389D01*
X0180427Y0171374D02*
X0175133Y0171374D01*
X0175133Y0172172D02*
X0178505Y0172172D01*
X0178713Y0171998D02*
X0178713Y0171998D01*
X0177553Y0172971D02*
X0175133Y0172971D01*
X0175133Y0173769D02*
X0176602Y0173769D01*
X0176255Y0174060D02*
X0176255Y0174060D01*
X0175962Y0174568D02*
X0175133Y0174568D01*
X0175133Y0175366D02*
X0175501Y0175366D01*
D22*
X0193885Y0140000D03*
X0200333Y0133000D03*
X0187333Y0134000D03*
X0188633Y0124400D03*
X0184436Y0124000D03*
X0180833Y0121500D03*
X0179333Y0103000D03*
X0188333Y0092500D03*
X0193333Y0092500D03*
X0198333Y0092500D03*
X0203333Y0092500D03*
X0212833Y0093500D03*
X0223333Y0095000D03*
X0214333Y0105000D03*
X0203333Y0113700D03*
X0198333Y0113700D03*
X0226833Y0132500D03*
X0218333Y0154500D03*
X0218333Y0165500D03*
X0228333Y0178500D03*
X0221680Y0185000D03*
X0211833Y0183000D03*
X0222333Y0080000D03*
X0184333Y0072000D03*
D23*
X0218215Y0091260D02*
X0223333Y0091260D01*
X0223333Y0089000D01*
X0223833Y0088500D01*
X0225833Y0088500D01*
X0226680Y0087654D01*
X0226680Y0085000D01*
X0226680Y0080654D01*
X0228333Y0079000D01*
X0228333Y0055000D01*
X0223333Y0091260D02*
X0223333Y0095000D01*
X0223333Y0098000D01*
X0222593Y0098740D01*
X0218215Y0098740D01*
X0208806Y0150000D02*
X0208806Y0154528D01*
X0208333Y0155000D01*
X0204833Y0155000D01*
X0203333Y0156500D01*
X0203333Y0160669D01*
X0208333Y0155000D02*
X0213333Y0155000D01*
X0214593Y0156260D01*
X0214593Y0159881D01*
X0222073Y0159881D02*
X0224215Y0159881D01*
X0226833Y0162500D01*
X0228333Y0162500D01*
X0228333Y0166654D01*
X0228333Y0162500D02*
X0228333Y0158346D01*
X0222073Y0170119D02*
X0222073Y0173740D01*
X0221680Y0174134D01*
X0221680Y0175000D01*
X0214593Y0175000D01*
X0213333Y0175000D01*
X0205333Y0175000D01*
X0203333Y0173000D01*
X0203333Y0169331D01*
X0214593Y0170119D02*
X0214593Y0175000D01*
X0221680Y0175000D02*
X0221680Y0178500D01*
X0221680Y0185000D01*
D24*
X0192703Y0119370D02*
X0192703Y0116122D01*
X0198333Y0113700D02*
X0198333Y0108524D01*
X0203333Y0108524D02*
X0203333Y0113700D01*
D25*
X0193333Y0111500D02*
X0193333Y0108524D01*
X0193333Y0111500D02*
X0192833Y0112000D01*
X0187833Y0112000D01*
X0185617Y0114217D01*
X0185617Y0116122D01*
X0183255Y0116122D02*
X0183255Y0114079D01*
X0186333Y0111000D01*
X0186333Y0109000D01*
X0186810Y0108524D01*
X0188333Y0108524D01*
M02*
