G75*
%MOIN*%
%OFA0B0*%
%FSLAX25Y25*%
%IPPOS*%
%LPD*%
%AMOC8*
5,1,8,0,0,1.08239X$1,22.5*
%
%ADD10C,0.00600*%
%ADD11C,0.00800*%
%ADD12C,0.01000*%
%ADD13C,0.01720*%
%ADD14C,0.00300*%
D10*
X0175433Y0060000D02*
X0175433Y0067366D01*
X0176630Y0065685D02*
X0176630Y0064550D01*
X0177198Y0063983D01*
X0177765Y0063983D01*
X0178332Y0064550D01*
X0178332Y0065685D01*
X0178899Y0066252D01*
X0179466Y0066252D01*
X0180033Y0065685D01*
X0180033Y0064550D01*
X0179466Y0063983D01*
X0179466Y0062569D02*
X0180033Y0062001D01*
X0180033Y0060867D01*
X0179466Y0060300D01*
X0177198Y0060300D01*
X0176630Y0060867D01*
X0176630Y0062001D01*
X0177198Y0062569D01*
X0176630Y0065685D02*
X0177198Y0066252D01*
X0186630Y0065685D02*
X0186630Y0064550D01*
X0187198Y0063983D01*
X0189466Y0063983D01*
X0190033Y0064550D01*
X0190033Y0065685D01*
X0189466Y0066252D01*
X0190033Y0067666D02*
X0190033Y0069935D01*
X0190033Y0071349D02*
X0186630Y0071349D01*
X0188332Y0071917D02*
X0190033Y0073618D01*
X0188899Y0071349D02*
X0186630Y0073618D01*
X0186630Y0067666D02*
X0190033Y0067666D01*
X0187198Y0066252D02*
X0186630Y0065685D01*
X0187198Y0062569D02*
X0186630Y0062001D01*
X0186630Y0060867D01*
X0187198Y0060300D01*
X0187765Y0060300D01*
X0188332Y0060867D01*
X0188332Y0062001D01*
X0188899Y0062569D01*
X0189466Y0062569D01*
X0190033Y0062001D01*
X0190033Y0060867D01*
X0189466Y0060300D01*
X0196630Y0060867D02*
X0197198Y0060300D01*
X0197765Y0060300D01*
X0198332Y0060867D01*
X0198332Y0062001D01*
X0198899Y0062569D01*
X0199466Y0062569D01*
X0200033Y0062001D01*
X0200033Y0060867D01*
X0199466Y0060300D01*
X0196630Y0060867D02*
X0196630Y0062001D01*
X0197198Y0062569D01*
X0196630Y0063983D02*
X0196630Y0065685D01*
X0197198Y0066252D01*
X0199466Y0066252D01*
X0200033Y0065685D01*
X0200033Y0063983D01*
X0196630Y0063983D01*
X0196630Y0067666D02*
X0196630Y0068801D01*
X0196630Y0068233D02*
X0200033Y0068233D01*
X0200033Y0067666D02*
X0200033Y0068801D01*
X0200033Y0070122D02*
X0196630Y0070122D01*
X0200033Y0072390D01*
X0196630Y0072390D01*
X0205433Y0071049D02*
X0205433Y0060000D01*
X0206630Y0060300D02*
X0206630Y0062001D01*
X0207198Y0062569D01*
X0208332Y0062569D01*
X0208899Y0062001D01*
X0208899Y0060300D01*
X0208899Y0061434D02*
X0210033Y0062569D01*
X0210033Y0063983D02*
X0210033Y0066252D01*
X0209466Y0067666D02*
X0210033Y0068233D01*
X0210033Y0069368D01*
X0209466Y0069935D01*
X0208899Y0069935D01*
X0208332Y0069368D01*
X0208332Y0068233D01*
X0207765Y0067666D01*
X0207198Y0067666D01*
X0206630Y0068233D01*
X0206630Y0069368D01*
X0207198Y0069935D01*
X0206630Y0066252D02*
X0206630Y0063983D01*
X0210033Y0063983D01*
X0208332Y0063983D02*
X0208332Y0065117D01*
X0210033Y0060300D02*
X0206630Y0060300D01*
X0216630Y0060867D02*
X0217198Y0060300D01*
X0219466Y0060300D01*
X0220033Y0060867D01*
X0220033Y0062001D01*
X0219466Y0062569D01*
X0218332Y0062569D01*
X0218332Y0061434D01*
X0217198Y0062569D02*
X0216630Y0062001D01*
X0216630Y0060867D01*
X0216630Y0063983D02*
X0220033Y0066252D01*
X0216630Y0066252D01*
X0216630Y0067666D02*
X0216630Y0069368D01*
X0217198Y0069935D01*
X0219466Y0069935D01*
X0220033Y0069368D01*
X0220033Y0067666D01*
X0216630Y0067666D01*
X0216630Y0063983D02*
X0220033Y0063983D01*
X0226630Y0063983D02*
X0226630Y0065117D01*
X0226630Y0064550D02*
X0230033Y0064550D01*
X0230033Y0063983D02*
X0230033Y0065117D01*
X0230033Y0066439D02*
X0226630Y0066439D01*
X0230033Y0068707D01*
X0226630Y0068707D01*
X0226630Y0062569D02*
X0228899Y0062569D01*
X0230033Y0061434D01*
X0228899Y0060300D01*
X0226630Y0060300D01*
D11*
X0225024Y0090000D02*
X0221643Y0090000D01*
X0226124Y0093943D02*
X0226124Y0096057D01*
X0225024Y0100000D02*
X0221643Y0100000D01*
X0211533Y0100100D02*
X0211533Y0104056D01*
X0211521Y0104126D01*
X0211504Y0104196D01*
X0211484Y0104264D01*
X0211461Y0104332D01*
X0211433Y0104398D01*
X0211402Y0104462D01*
X0211368Y0104524D01*
X0211330Y0104585D01*
X0211290Y0104644D01*
X0211246Y0104700D01*
X0211199Y0104753D01*
X0211149Y0104805D01*
X0211096Y0104853D01*
X0211041Y0104898D01*
X0210984Y0104941D01*
X0210924Y0104980D01*
X0210862Y0105016D01*
X0210799Y0105048D01*
X0210734Y0105077D01*
X0210667Y0105103D01*
X0210599Y0105125D01*
X0210530Y0105143D01*
X0210460Y0105157D01*
X0210389Y0105167D01*
X0210318Y0105174D01*
X0210247Y0105177D01*
X0210176Y0105176D01*
X0210104Y0105171D01*
X0210034Y0105162D01*
X0210033Y0105163D02*
X0176240Y0105163D01*
X0176239Y0105162D02*
X0176169Y0105150D01*
X0176099Y0105133D01*
X0176031Y0105113D01*
X0175964Y0105089D01*
X0175898Y0105062D01*
X0175833Y0105031D01*
X0175771Y0104997D01*
X0175710Y0104959D01*
X0175652Y0104918D01*
X0175595Y0104874D01*
X0175542Y0104827D01*
X0175491Y0104777D01*
X0175442Y0104725D01*
X0175397Y0104670D01*
X0175354Y0104612D01*
X0175315Y0104553D01*
X0175279Y0104491D01*
X0175247Y0104427D01*
X0175218Y0104362D01*
X0175192Y0104296D01*
X0175171Y0104228D01*
X0175152Y0104158D01*
X0175138Y0104089D01*
X0175128Y0104018D01*
X0175121Y0103947D01*
X0175118Y0103876D01*
X0175119Y0103804D01*
X0175124Y0103733D01*
X0175133Y0103662D01*
X0175133Y0103663D02*
X0175133Y0091337D01*
X0175135Y0091261D01*
X0175141Y0091186D01*
X0175150Y0091110D01*
X0175164Y0091035D01*
X0175181Y0090961D01*
X0175202Y0090888D01*
X0175226Y0090816D01*
X0175254Y0090746D01*
X0175286Y0090677D01*
X0175321Y0090609D01*
X0175360Y0090544D01*
X0175402Y0090480D01*
X0175447Y0090419D01*
X0175495Y0090360D01*
X0175546Y0090304D01*
X0175600Y0090250D01*
X0175656Y0090199D01*
X0175715Y0090151D01*
X0175776Y0090106D01*
X0175840Y0090064D01*
X0175905Y0090025D01*
X0175973Y0089990D01*
X0176042Y0089958D01*
X0176112Y0089930D01*
X0176184Y0089906D01*
X0176257Y0089885D01*
X0176331Y0089868D01*
X0176406Y0089854D01*
X0176482Y0089845D01*
X0176557Y0089839D01*
X0176633Y0089837D01*
X0210033Y0089837D01*
X0210114Y0089849D01*
X0210194Y0089864D01*
X0210273Y0089883D01*
X0210351Y0089905D01*
X0210428Y0089932D01*
X0210504Y0089961D01*
X0210578Y0089995D01*
X0210650Y0090032D01*
X0210721Y0090072D01*
X0210789Y0090116D01*
X0210856Y0090163D01*
X0210920Y0090213D01*
X0210981Y0090266D01*
X0211040Y0090322D01*
X0211097Y0090381D01*
X0211150Y0090442D01*
X0211201Y0090506D01*
X0211248Y0090572D01*
X0211292Y0090640D01*
X0211333Y0090710D01*
X0211371Y0090782D01*
X0211405Y0090856D01*
X0211435Y0090932D01*
X0211462Y0091008D01*
X0211485Y0091086D01*
X0211505Y0091165D01*
X0211520Y0091245D01*
X0211532Y0091326D01*
X0211540Y0091406D01*
X0211544Y0091488D01*
X0211545Y0091569D01*
X0211541Y0091650D01*
X0211534Y0091731D01*
X0211533Y0091781D02*
X0211533Y0095100D01*
X0211333Y0095100D02*
X0211235Y0095102D01*
X0211137Y0095108D01*
X0211039Y0095117D01*
X0210942Y0095131D01*
X0210845Y0095148D01*
X0210749Y0095169D01*
X0210654Y0095194D01*
X0210560Y0095222D01*
X0210468Y0095255D01*
X0210376Y0095290D01*
X0210286Y0095330D01*
X0210198Y0095372D01*
X0210111Y0095419D01*
X0210027Y0095468D01*
X0209944Y0095521D01*
X0209864Y0095577D01*
X0209785Y0095637D01*
X0209709Y0095699D01*
X0209636Y0095764D01*
X0209565Y0095832D01*
X0209497Y0095903D01*
X0209432Y0095976D01*
X0209370Y0096052D01*
X0209310Y0096131D01*
X0209254Y0096211D01*
X0209201Y0096294D01*
X0209152Y0096378D01*
X0209105Y0096465D01*
X0209063Y0096553D01*
X0209023Y0096643D01*
X0208988Y0096735D01*
X0208955Y0096827D01*
X0208927Y0096921D01*
X0208902Y0097016D01*
X0208881Y0097112D01*
X0208864Y0097209D01*
X0208850Y0097306D01*
X0208841Y0097404D01*
X0208835Y0097502D01*
X0208833Y0097600D01*
X0208835Y0097698D01*
X0208841Y0097796D01*
X0208850Y0097894D01*
X0208864Y0097991D01*
X0208881Y0098088D01*
X0208902Y0098184D01*
X0208927Y0098279D01*
X0208955Y0098373D01*
X0208988Y0098465D01*
X0209023Y0098557D01*
X0209063Y0098647D01*
X0209105Y0098735D01*
X0209152Y0098822D01*
X0209201Y0098906D01*
X0209254Y0098989D01*
X0209310Y0099069D01*
X0209370Y0099148D01*
X0209432Y0099224D01*
X0209497Y0099297D01*
X0209565Y0099368D01*
X0209636Y0099436D01*
X0209709Y0099501D01*
X0209785Y0099563D01*
X0209864Y0099623D01*
X0209944Y0099679D01*
X0210027Y0099732D01*
X0210111Y0099781D01*
X0210198Y0099828D01*
X0210286Y0099870D01*
X0210376Y0099910D01*
X0210468Y0099945D01*
X0210560Y0099978D01*
X0210654Y0100006D01*
X0210749Y0100031D01*
X0210845Y0100052D01*
X0210942Y0100069D01*
X0211039Y0100083D01*
X0211137Y0100092D01*
X0211235Y0100098D01*
X0211333Y0100100D01*
X0198215Y0115846D02*
X0193885Y0115846D01*
X0198215Y0115846D02*
X0198215Y0129035D01*
X0195066Y0129035D01*
X0193369Y0132118D02*
X0180180Y0132118D01*
X0178530Y0129035D02*
X0175381Y0129035D01*
X0175381Y0115846D01*
X0179711Y0115846D01*
X0209790Y0147539D02*
X0216877Y0147539D01*
X0220302Y0147539D02*
X0220302Y0152461D01*
X0216877Y0152461D02*
X0209790Y0152461D01*
X0209633Y0158307D02*
X0197034Y0158307D01*
X0197034Y0171693D01*
X0209633Y0171693D01*
X0209633Y0158307D01*
X0213333Y0163309D02*
X0213333Y0166691D01*
X0217277Y0167791D02*
X0219390Y0167791D01*
X0223333Y0166691D02*
X0223333Y0163309D01*
D12*
X0212033Y0161000D03*
X0219333Y0101300D03*
D13*
X0211333Y0106600D03*
D14*
X0200093Y0174917D02*
X0200290Y0175114D01*
X0200408Y0175311D01*
X0200605Y0175508D01*
X0200802Y0175744D01*
X0201274Y0176217D01*
X0201747Y0176768D01*
X0202140Y0177161D01*
X0202534Y0177398D01*
X0202770Y0177437D01*
X0203518Y0177437D01*
X0203991Y0177516D01*
X0204424Y0177634D01*
X0204818Y0177791D01*
X0205211Y0178028D01*
X0205526Y0178303D01*
X0205841Y0178618D01*
X0206117Y0178972D01*
X0206510Y0179681D01*
X0206707Y0180429D01*
X0206747Y0181098D01*
X0206629Y0181728D01*
X0206432Y0182319D01*
X0206156Y0182752D01*
X0205841Y0183106D01*
X0205526Y0183303D01*
X0205526Y0182949D01*
X0205487Y0182831D01*
X0205448Y0182752D01*
X0205329Y0182634D01*
X0205211Y0182594D01*
X0205093Y0182594D01*
X0204778Y0182673D01*
X0204621Y0182752D01*
X0204503Y0182831D01*
X0204345Y0182949D01*
X0204109Y0183185D01*
X0203951Y0183421D01*
X0203912Y0183579D01*
X0203912Y0183815D01*
X0203951Y0183933D01*
X0203991Y0184012D01*
X0204070Y0184130D01*
X0204227Y0184248D01*
X0204385Y0184327D01*
X0204581Y0184366D01*
X0204739Y0184406D01*
X0204975Y0184406D01*
X0205054Y0184366D01*
X0205093Y0184366D01*
X0205054Y0184406D01*
X0204896Y0184524D01*
X0204345Y0184799D01*
X0203991Y0184878D01*
X0203597Y0184878D01*
X0203164Y0184799D01*
X0202731Y0184563D01*
X0202377Y0184287D01*
X0202180Y0183972D01*
X0202062Y0183618D01*
X0202062Y0183303D01*
X0202140Y0182949D01*
X0202337Y0182594D01*
X0202613Y0182280D01*
X0202928Y0181925D01*
X0203203Y0181650D01*
X0203322Y0181335D01*
X0203322Y0181059D01*
X0203243Y0180823D01*
X0203085Y0180626D01*
X0202849Y0180469D01*
X0202534Y0180390D01*
X0202219Y0180390D01*
X0202022Y0180429D01*
X0201825Y0180508D01*
X0201589Y0180744D01*
X0201510Y0180862D01*
X0201471Y0180980D01*
X0201471Y0181138D01*
X0201510Y0181256D01*
X0201747Y0181492D01*
X0201865Y0181531D01*
X0202022Y0181610D01*
X0202062Y0181650D01*
X0201904Y0181728D01*
X0201432Y0181728D01*
X0201196Y0181689D01*
X0200999Y0181650D01*
X0200802Y0181571D01*
X0200644Y0181453D01*
X0200448Y0181295D01*
X0200211Y0180902D01*
X0200133Y0180626D01*
X0200093Y0180311D01*
X0200093Y0174917D01*
X0200093Y0175076D02*
X0200252Y0175076D01*
X0200093Y0175375D02*
X0200472Y0175375D01*
X0200743Y0175673D02*
X0200093Y0175673D01*
X0200093Y0175972D02*
X0201030Y0175972D01*
X0201320Y0176270D02*
X0200093Y0176270D01*
X0200093Y0176569D02*
X0201576Y0176569D01*
X0201846Y0176867D02*
X0200093Y0176867D01*
X0200093Y0177166D02*
X0202148Y0177166D01*
X0203682Y0177464D02*
X0200093Y0177464D01*
X0200093Y0177763D02*
X0204746Y0177763D01*
X0205250Y0178061D02*
X0200093Y0178061D01*
X0200093Y0178360D02*
X0205583Y0178360D01*
X0205873Y0178658D02*
X0200093Y0178658D01*
X0200093Y0178957D02*
X0206105Y0178957D01*
X0206274Y0179255D02*
X0200093Y0179255D01*
X0200093Y0179554D02*
X0206440Y0179554D01*
X0206556Y0179852D02*
X0200093Y0179852D01*
X0200093Y0180151D02*
X0206634Y0180151D01*
X0206709Y0180449D02*
X0202773Y0180449D01*
X0203183Y0180748D02*
X0206726Y0180748D01*
X0206744Y0181046D02*
X0203317Y0181046D01*
X0203318Y0181345D02*
X0206700Y0181345D01*
X0206645Y0181643D02*
X0203206Y0181643D01*
X0202913Y0181942D02*
X0206557Y0181942D01*
X0206458Y0182241D02*
X0202648Y0182241D01*
X0202386Y0182539D02*
X0206292Y0182539D01*
X0206080Y0182838D02*
X0205489Y0182838D01*
X0205526Y0183136D02*
X0205794Y0183136D01*
X0204494Y0182838D02*
X0202202Y0182838D01*
X0202099Y0183136D02*
X0204158Y0183136D01*
X0203948Y0183435D02*
X0202062Y0183435D01*
X0202100Y0183733D02*
X0203912Y0183733D01*
X0204004Y0184032D02*
X0202217Y0184032D01*
X0202432Y0184330D02*
X0204401Y0184330D01*
X0204686Y0184629D02*
X0202851Y0184629D01*
X0202056Y0181643D02*
X0200983Y0181643D01*
X0200510Y0181345D02*
X0201600Y0181345D01*
X0201471Y0181046D02*
X0200298Y0181046D01*
X0200167Y0180748D02*
X0201587Y0180748D01*
X0201972Y0180449D02*
X0200110Y0180449D01*
M02*
